<svg width="725" height="609" viewBox="0 0 725 609" fill="none" xmlns="http://www.w3.org/2000/svg">
<path d="M691.651 268.905V576.563H33.8398V268.905L38.6869 261.87L65.6368 222.781L105.662 164.723L114.752 151.54L157.998 128.182L198.031 106.554L250.368 78.2829L290.393 56.662L342.729 28.39L362.746 17.58L382.762 28.39L435.099 56.662L475.124 78.2829L527.46 106.554L567.494 128.182L610.74 151.54L619.83 164.723L659.855 222.781L687.658 263.105L691.651 268.905Z" fill="#D13430"/>
<g opacity="0.53">
<path d="M105.662 164.723V576.563H65.6367V222.781L105.662 164.723Z" fill="#842D54"/>
<path d="M198.031 106.554V576.563H157.998V128.182L198.031 106.554Z" fill="#842D54"/>
<path d="M290.392 56.662V576.563H250.367V78.283L290.392 56.662Z" fill="#842D54"/>
<path d="M382.761 28.39V576.563H342.729V28.39L362.745 17.58L382.761 28.39Z" fill="#842D54"/>
<path d="M475.124 78.283V576.563H435.099V56.662L475.124 78.283Z" fill="#842D54"/>
<path d="M567.494 128.182V576.563H527.46V106.554L567.494 128.182Z" fill="#842D54"/>
<path d="M659.855 222.781V576.563H619.83V164.723L659.855 222.781Z" fill="#842D54"/>
</g>
<path d="M440.492 256.17H299.091C295.115 256.17 291.891 252.946 291.891 248.97V128.328C291.891 124.352 295.115 121.128 299.091 121.128H440.492C444.468 121.128 447.692 124.352 447.692 128.328V248.97C447.692 252.946 444.468 256.17 440.492 256.17Z" fill="white"/>
<path d="M376.132 138.342V239.071C376.132 240.998 377.934 242.561 380.158 242.561H428.502C430.725 242.561 432.528 240.999 432.528 239.071V138.342C432.528 136.415 430.726 134.853 428.502 134.853H380.158C377.934 134.853 376.132 136.415 376.132 138.342Z" fill="#842D54"/>
<path d="M360.632 134.853H312.288C310.065 134.853 308.262 136.415 308.262 138.342V239.071C308.262 240.998 310.064 242.561 312.288 242.561H360.632C362.855 242.561 364.658 240.999 364.658 239.071V138.342C364.658 136.415 362.856 134.853 360.632 134.853Z" fill="#842D54"/>
<path opacity="0.63" d="M692.225 274.04H26.5898V285.889H692.225V274.04Z" fill="#EAB896"/>
<path d="M357.913 345.149H129.244V576.56H357.913V345.149Z" fill="white"/>
<path d="M230.056 460.855L142.127 371.872V549.837L230.056 460.855Z" fill="#842D54"/>
<path d="M331.508 358.186H155.651L243.579 447.169L331.508 358.186Z" fill="#842D54"/>
<path d="M243.579 474.54L155.651 563.523H331.507L243.579 474.54Z" fill="#842D54"/>
<path d="M257.104 460.855L345.031 549.837V371.872L257.104 460.855Z" fill="#842D54"/>
<path d="M604.8 345.149H376.131V576.56H604.8V345.149Z" fill="white"/>
<path d="M476.942 460.855L389.014 371.872V549.837L476.942 460.855Z" fill="#842D54"/>
<path d="M578.394 358.186H402.537L490.466 447.169L578.394 358.186Z" fill="#842D54"/>
<path d="M490.466 474.54L402.537 563.523H578.394L490.466 474.54Z" fill="#842D54"/>
<path d="M503.988 460.855L591.916 549.837V371.872L503.988 460.855Z" fill="#842D54"/>
<path d="M687.657 263.105C685.37 270.091 683.695 274.041 683.695 274.041H648.582L591.913 169.281L359.403 53.431L142.127 167.885L65.6365 274.041H41.7955C41.7955 274.041 40.5875 269.63 38.6875 261.87L114.752 151.54L362.746 17.58L610.74 151.54L687.657 263.105Z" fill="#842D54"/>
<path d="M621.005 136.05L371.987 3.22599C366.32 0.20299 359.171 0.20299 353.504 3.22599L104.485 136.05C102.233 137.251 100.321 138.876 98.8913 140.805L3.46528 269.536C-1.78272 276.616 0.559295 286.041 8.7043 290.62L8.70832 290.622C16.9813 295.273 28.0473 293.14 33.2653 285.888L123.007 161.186C124.461 159.166 126.439 157.468 128.784 156.228L353.56 37.351C359.2 34.368 366.289 34.368 371.929 37.351L596.705 156.228C599.05 157.468 601.028 159.166 602.482 161.186L692.224 285.888C697.443 293.14 708.508 295.273 716.781 290.622L716.785 290.62C724.93 286.041 727.272 276.616 722.024 269.536L626.598 140.805C625.169 138.877 623.257 137.252 621.005 136.05Z" fill="#CCA18B"/>
<path d="M709.978 576.563H10.6846V608.846H709.978V576.563Z" fill="#CCA18B"/>
</svg>
