<svg width="866" height="1649" viewBox="0 0 866 1649" fill="none" xmlns="http://www.w3.org/2000/svg">
<path d="M781.582 472.879H748.971V1648.36H781.582V472.879Z" fill="#CCA18B"/>
<path d="M785.146 472.879H741.046C737.953 472.879 735.446 470.372 735.446 467.279V349.359C735.446 346.266 737.953 343.759 741.046 343.759H785.146C788.239 343.759 790.746 346.266 790.746 349.359V467.279C790.747 470.372 788.239 472.879 785.146 472.879Z" fill="#9B553A"/>
<path d="M864.025 323.586C865.679 278.838 867.592 201.1 862.603 167.597C855.39 119.165 829.543 105.956 829.543 105.956C829.543 105.956 839.16 128.6 842.767 159.42C845.35 181.498 839.298 273.285 835.656 323.586H781.626C783.28 278.838 785.193 201.1 780.204 167.597C772.991 119.165 747.144 105.956 747.144 105.956C747.144 105.956 756.761 128.6 760.368 159.42C762.951 181.498 756.899 273.285 753.257 323.586H699.228C700.882 278.835 702.794 201.116 697.805 167.618C690.592 119.186 664.745 105.977 664.745 105.977C664.745 105.977 674.362 128.621 677.969 159.441C680.552 181.515 676.086 273.28 673.344 323.586H671.441V364.47H865.809V323.586H864.025Z" fill="#CCA18B"/>
<path d="M427.988 110.357L233.234 135.225C233.234 135.225 227.103 31.91 295.718 6.64095C301.245 4.60795 307.259 3.07795 313.805 2.15395C382.807 -7.63105 410.181 36.0509 421.65 77.8399C424.76 89.1819 426.708 100.395 427.988 110.357Z" fill="#F9CB64"/>
<path opacity="0.4" d="M427.988 110.357L233.234 135.225C233.234 135.225 227.103 31.91 295.718 6.64099C274.944 39.466 249.221 83.95 254.919 94.808C261.744 107.811 341.765 73.914 421.65 77.841C424.76 89.182 426.708 100.395 427.988 110.357Z" fill="#D1752A"/>
<path d="M330.129 189.674C435.801 176.847 519.134 147.25 516.259 123.566C513.384 99.883 425.39 91.0821 319.719 103.909C214.047 116.736 130.714 146.334 133.589 170.017C136.464 193.701 224.458 202.502 330.129 189.674Z" fill="#D1752A"/>
<path opacity="0.4" d="M307.514 41.2429C302.903 41.1639 298.289 41.086 293.674 41.041C294.321 39.222 294.964 37.3839 295.562 35.4949C296.649 32.0649 291.427 30.595 290.346 34.007C289.587 36.404 288.761 38.7139 287.941 41.0059C285.527 40.9999 283.113 41.0059 280.701 41.0319C278.708 41.054 276.708 41.113 274.717 41.274C276.878 37.792 279.233 34.429 281.791 31.218C283.989 28.459 280.183 24.478 277.966 27.261C274.156 32.043 270.776 37.1029 267.809 42.3809C263.816 43.4289 260.031 45.251 255.903 45.716C252.479 46.101 252.441 51.702 255.903 51.313C258.818 50.985 261.505 50.1569 264.233 49.2839C261.334 55.3879 258.978 61.749 257.195 68.311C255.149 68.717 253.106 69.138 251.068 69.588C247.665 70.339 249.105 75.736 252.506 74.985C253.582 74.747 254.661 74.527 255.739 74.302C254.783 78.743 254.068 83.2589 253.63 87.8419C253.288 91.423 258.7 91.3989 259.04 87.8419C259.514 82.88 260.339 77.977 261.48 73.164C272.164 71.164 282.932 69.778 293.783 69.026C297.238 68.787 297.264 63.188 293.783 63.429C283.483 64.142 273.242 65.409 263.079 67.209C265.126 60.342 267.833 53.6989 271.183 47.4019C274.315 46.8389 277.483 46.665 280.702 46.63C282.467 46.611 284.233 46.6079 285.999 46.6069C284.81 50.2069 283.782 53.8719 283.219 57.8459C282.72 61.3689 287.931 62.89 288.436 59.334C289.074 54.829 290.31 50.705 291.707 46.627C296.978 46.667 302.249 46.751 307.516 46.841C310.997 46.899 310.998 41.3019 307.514 41.2429Z" fill="#D1752A"/>
<path d="M419.691 386.764C419.691 386.764 398.233 422.212 378.398 427.346C358.563 432.472 273.81 363.449 273.81 363.449C273.81 363.449 279.505 360.171 284.614 356.149C288.135 353.381 291.371 350.254 292.291 347.594C294.549 341.063 300.436 296.216 300.436 296.216L406.872 313.074C405.902 314.479 399.137 374.345 399.137 374.345L408.921 380.257L419.691 386.764Z" fill="#F6BE8E"/>
<path d="M408.92 380.258C393.433 394.081 380.622 405.144 378.397 405.93C374.233 407.402 319.802 376.52 284.613 356.149C288.134 353.381 291.37 350.254 292.29 347.594C294.548 341.063 300.435 296.216 300.435 296.216L406.871 313.074C405.901 314.479 399.136 374.345 399.136 374.345L408.92 380.258Z" fill="#E27785"/>
<path d="M424.982 140.824C424.982 140.824 424.381 184.976 426.184 191.816C427.987 198.656 444.818 253.38 429.189 283.229C413.561 313.078 370.883 329.868 346.839 326.759C322.795 323.65 281.921 283.851 277.713 257.111C273.505 230.371 269.899 155.127 269.899 155.127C269.899 155.127 285.527 133.362 341.429 127.765C397.331 122.169 424.982 140.824 424.982 140.824Z" fill="#F6BE8E"/>
<path d="M275.25 149.892C275.25 149.892 278.916 217.312 283.123 234.102C287.331 250.892 291.538 262.707 295.145 262.707C298.752 262.707 326.101 241.253 342.331 242.186C353.535 242.83 361.086 247.03 364.689 249.57C366.216 250.647 368.217 250.665 369.747 249.593C375.409 245.625 389.117 237.011 399.585 238.455C413.11 240.321 428.437 248.249 428.437 248.249C428.437 248.249 427.085 222.598 425.281 213.736C423.478 204.875 420.322 193.681 420.322 181.555C420.322 169.429 421.38 138.786 421.38 138.786L428.437 140.979C428.437 140.979 426.183 182.954 428.437 189.95C430.691 196.946 439.257 230.526 439.708 238.455C440.159 246.384 439.708 251.514 439.708 251.514C439.708 251.514 447.372 269.237 443.765 280.897C440.158 292.557 435.78 298.62 435.78 298.62C435.78 298.62 437.003 319.141 432.495 329.402C427.987 339.663 418.97 344.793 418.97 344.793C418.97 344.793 411.306 359.718 408.15 363.915C404.994 368.113 393.273 367.646 393.273 367.646C393.273 367.646 386.511 375.575 377.494 374.175C368.478 372.776 364.42 365.78 364.42 365.78C364.42 365.78 352.699 377.906 335.568 366.713C318.437 355.52 316.634 346.658 316.634 346.658C316.634 346.658 309.872 353.654 294.995 352.255C280.118 350.856 275.25 334.532 275.25 334.532C275.25 334.532 259.38 334.998 249.913 314.011C240.446 293.024 253.069 271.569 253.069 271.569C253.069 271.569 242.871 265.04 246.392 253.38C249.913 241.72 252.167 239.388 252.167 239.388C252.167 239.388 237.741 206.274 237.741 193.682C237.741 181.09 237.741 177.825 237.741 177.825L275.25 149.892Z" fill="#842D54"/>
<path d="M263.555 208.474C263.555 208.474 245.6 192.722 239.74 205.696C233.88 218.669 235.706 232.083 242.554 238.522C249.402 244.961 265.609 245.766 268.12 244.961C270.631 244.156 271.544 218.937 263.555 208.474Z" fill="#F6BE8E"/>
<path d="M267.117 228.803C265.348 222.513 262.479 214.867 257.415 210.607C252.487 206.462 247.38 209.385 243.114 212.993C241.766 214.134 243.689 216.103 245.027 214.972C246.993 213.309 249.448 211.169 252.167 211.24C255.405 211.325 257.377 214.412 258.962 216.857C259.832 218.2 260.606 219.594 261.306 221.025C259.047 220.155 256.444 220.62 254.454 222.332C251.507 224.868 250.648 229.144 251.946 232.796C252.542 234.472 255.157 233.748 254.554 232.052C253.729 229.73 253.875 227.058 255.527 225.132C257.171 223.214 259.89 222.659 261.755 224.564C262.139 224.957 262.589 225.037 262.989 224.923C263.562 226.436 264.068 227.979 264.509 229.545C264.994 231.272 267.605 230.538 267.117 228.803Z" fill="#E27785"/>
<path d="M371.139 211.237C373.856 217.427 380.816 222.447 381.658 229.353C382.84 239.052 371.713 241.694 364.638 240.787C361.191 240.345 361.222 245.946 364.638 246.384C373.447 247.514 384.139 244.046 386.688 234.21C389.44 223.59 379.581 217 375.811 208.413C374.373 205.138 369.709 207.979 371.139 211.237Z" fill="#E27785"/>
<path d="M411.848 272.978C409.729 276.028 404.427 282.595 394.753 288.276C388.631 291.886 380.769 295.132 370.86 296.914C360.662 298.752 351.682 297.278 344.217 294.461C333.839 290.562 326.392 284.079 322.668 280.301C322.001 279.629 322.641 278.445 323.516 278.734C328.033 280.236 336.409 282.073 345.741 279.424C348.32 278.696 350.709 277.633 352.891 276.393C362.538 270.89 368.201 261.814 368.201 261.814C372.646 267.69 380.86 270.349 389.056 271.44C398.181 272.643 407.251 271.916 411.065 271.496C411.812 271.411 412.299 272.325 411.848 272.978Z" fill="#C65568"/>
<path d="M389.054 271.439C383.067 274.452 375.87 276.784 367.642 277.148C362.308 277.391 357.37 277.064 352.886 276.393C362.54 270.89 368.2 261.814 368.2 261.814C372.649 267.689 380.86 270.347 389.054 271.439Z" fill="white"/>
<path d="M394.753 288.275C388.631 291.885 380.769 295.131 370.86 296.913C360.662 298.751 351.682 297.277 344.217 294.46C351.98 288.854 363.205 285.328 375.693 285.328C382.544 285.328 389.027 286.391 394.753 288.275Z" fill="#E27785"/>
<path d="M313.397 196.205C313.905 190.749 316.869 185.689 321.562 183.023C327.425 179.692 332.178 183.612 335.456 188.594C337.404 191.554 342.094 188.757 340.127 185.769C335.607 178.9 328.907 173.782 320.692 177.281C313.194 180.475 308.743 188.093 307.987 196.205C307.653 199.788 313.065 199.764 313.397 196.205Z" fill="#842D54"/>
<path d="M381.749 187.161C386.52 178.691 399.616 176.162 403.581 186.97C404.804 190.305 410.036 188.859 408.798 185.482C403.233 170.311 384.414 171.312 377.079 184.336C375.322 187.454 379.995 190.275 381.749 187.161Z" fill="#842D54"/>
<path d="M301.07 170.134C301.07 169.434 308.283 164.304 315.045 161.506C321.807 158.708 321.807 158.708 321.807 158.708L322.603 161.04L324.284 158.008H330.823V166.869C330.823 166.869 329.245 165.003 319.327 167.802C309.409 170.6 296.786 174.336 296.786 174.336L301.07 170.134Z" fill="#842D54"/>
<path d="M381.541 158.007V165.236C381.541 165.236 387.852 163.37 393.939 165.236C400.025 167.102 406.562 170.6 406.562 170.6C406.562 170.6 403.632 164.77 399.349 161.972C395.066 159.174 391.911 158.008 391.911 158.008L390.558 160.573L388.079 156.375L381.541 158.007Z" fill="#842D54"/>
<path d="M336.893 220.85C337.422 225.528 330.283 230.236 320.947 231.366C311.612 232.495 303.615 229.619 303.086 224.94C302.557 220.261 309.696 215.554 319.032 214.424C328.367 213.295 336.364 216.171 336.893 220.85Z" fill="#E27785"/>
<path d="M406.872 226.923C413.953 226.923 419.693 224.224 419.693 220.895C419.693 217.566 413.953 214.867 406.872 214.867C399.791 214.867 394.051 217.566 394.051 220.895C394.051 224.224 399.791 226.923 406.872 226.923Z" fill="#E27785"/>
<path d="M206.184 632.714L197.772 592.679C197.772 592.679 144.269 651.37 139.463 655.101C134.657 658.832 101.594 630.224 87.7724 617.79C73.9414 605.347 61.3184 582.96 61.3184 582.96C61.3184 582.96 64.5644 578.268 69.6044 571.002C86.3754 546.815 123.008 494.057 126.236 489.981C130.365 484.776 172.499 428.641 175.402 420.908C175.411 420.899 175.411 420.899 175.411 420.889C175.438 420.805 175.465 420.74 175.492 420.675C175.501 420.647 175.501 420.628 175.501 420.61C175.51 420.591 175.51 420.573 175.51 420.563C175.519 420.544 175.519 420.526 175.528 420.507C176.88 414.612 179.585 411.487 181.389 407.756C183.192 404.025 220.069 399.519 220.069 399.519C220.069 399.519 221.8 407.662 224.55 421.514H224.559C231.402 455.906 244.584 525.454 253.366 592.68C265.683 686.965 206.184 632.714 206.184 632.714Z" fill="#D13430"/>
<path d="M206.184 632.714L197.772 592.679C197.772 592.679 144.269 651.37 139.463 655.101C134.657 658.832 101.594 630.224 87.7724 617.79C73.9414 605.347 61.3184 582.96 61.3184 582.96C61.3184 582.96 64.5644 578.268 69.6044 571.002C82.4974 588.566 96.3564 607.091 101.594 612.809C112.414 624.627 128.039 644.524 128.643 634.58C129.247 624.627 126.84 581.542 128.643 585.982C130.446 590.422 133.449 632.714 135.252 632.089C137.055 631.464 193.561 585.832 195.364 580.357C197.167 574.882 200.774 577.96 198.367 567.401C195.969 556.842 185.149 538.186 191.154 543.783C197.168 549.38 210.395 581.486 211.594 580.357C212.793 579.228 219.582 489.541 220.069 461.157C220.556 432.772 217.229 416.402 217.229 416.402C217.229 416.402 219.871 418.193 224.55 421.514H224.559C231.402 455.906 244.584 525.454 253.366 592.68C265.683 686.965 206.184 632.714 206.184 632.714Z" fill="#842D54"/>
<path d="M175.528 420.51C175.528 420.51 153.288 524.566 148.479 523.915C143.67 523.265 174.343 424.342 175.528 420.51Z" fill="#842D54"/>
<path d="M129.158 672.229C127.101 675.022 125.755 677.664 126.24 679.663C127.745 685.884 120.83 693.653 112.71 693.963C111.071 694.03 106.547 691.923 100.367 688.352C78.1573 675.482 34.5723 643.547 26.7703 624.681C26.0173 622.875 25.5993 621.194 25.5573 619.655C25.5573 619.655 23.3493 608.951 27.4303 604.887C28.1163 604.201 28.9853 603.708 30.0643 603.482C37.5733 601.935 42.3823 600.07 48.1013 591.047C53.8043 582.024 54.7073 577.751 60.1183 580.36C60.6283 580.611 61.2723 581.138 62.0333 581.915C69.2253 589.257 86.6943 618.199 102.197 628.05C116.998 637.449 135.153 649.165 139.827 654.793C140.563 655.679 140.964 656.415 140.964 656.967C140.966 659.711 133.481 666.325 129.158 672.229Z" fill="#CCA18B"/>
<path opacity="0.3" d="M126.24 679.663C127.745 685.884 120.83 693.653 112.71 693.963C111.071 694.03 106.547 691.923 100.367 688.352C78.1573 675.482 34.5723 643.547 26.7703 624.681C26.0173 622.875 25.5993 621.194 25.5573 619.655C25.5573 619.655 23.3493 608.951 27.4303 604.887C28.5423 608.282 30.1733 611.978 32.5393 615.875C34.4883 619.086 36.9293 622.431 39.9823 625.868C60.4193 648.881 104.899 677.798 101.596 675.306C99.9323 674.06 89.3623 661.324 80.5903 650.068C71.8763 638.879 64.9443 629.146 70.3383 633.644C81.1513 642.659 91.6793 657.276 115.72 667.536C120.637 669.635 125.128 671.14 129.158 672.227C127.101 675.022 125.755 677.665 126.24 679.663Z" fill="#842D54"/>
<path d="M778.725 503.832C776.02 506.63 748.971 515.231 748.971 515.231C748.971 515.231 749.798 600.686 748.445 601.153C747.093 601.619 713.356 590.115 706.143 589.182C702.266 588.678 681.718 596.103 662.071 603.08C645.147 609.106 628.891 614.796 624.545 614.833C621.425 614.861 619.586 606.699 618.513 595.776C616.358 573.809 617.332 540.676 617.332 540.676C617.332 540.676 627.142 540.76 639.647 540.573C657.932 540.302 681.961 539.463 689.463 536.963C702.086 532.747 713.356 527.663 717.865 525.536C722.373 523.419 734.545 497.767 738.603 494.036C742.66 490.305 780.98 488.906 781.431 490.305C781.88 491.706 781.43 501.034 778.725 503.832Z" fill="#F6BE8E"/>
<path d="M662.071 603.08C645.147 609.106 628.891 614.796 624.545 614.833C621.425 614.861 619.586 606.699 618.513 595.776C616.358 573.809 617.332 540.676 617.332 540.676C617.332 540.676 627.142 540.76 639.647 540.573L658.6 593.396L662.071 603.08Z" fill="#E27785"/>
<path d="M748.971 515.231C748.971 515.231 749.798 600.686 748.445 601.153C747.093 601.619 713.356 590.115 706.143 589.182C702.266 588.678 681.718 596.103 662.071 603.08C645.147 609.106 628.891 614.796 624.545 614.833C621.425 614.861 619.586 606.699 618.513 595.776C628.927 597.119 643.542 597.576 658.6 593.397C659.42 593.173 660.241 592.931 661.061 592.679C690.364 583.584 697.577 579.387 702.987 581.252C708.397 583.118 730.487 588.043 732.29 587.212C734.094 586.383 748.971 515.231 748.971 515.231Z" fill="#E27785"/>
<path d="M604.708 635.821C599.902 638.312 554.216 649.468 545.804 648.861C537.383 648.255 518.755 645.419 515.743 643.423C512.741 641.418 448.67 546.899 448.67 546.899L467.568 434.098L473.365 399.52C473.365 399.52 489.901 409.463 491.398 413.195C492.904 416.926 492.904 423.456 495.609 426.254C498.314 429.052 547.002 525.754 552.412 529.485C553.8 530.436 555.108 531.36 556.28 532.199C559.706 534.652 562.033 536.509 562.033 536.966C562.033 537.554 566.496 541.108 566.496 541.294C566.514 541.294 566.604 541.275 566.767 541.247C566.947 541.21 567.218 541.163 567.56 541.107L568.128 541.004L569.165 540.817C570.589 540.565 572.492 540.239 574.575 539.875C581.878 538.616 591.481 536.965 591.481 536.965C591.481 536.965 609.514 633.33 604.708 635.821Z" fill="#D13430"/>
<path d="M604.708 635.821C599.902 638.312 554.216 649.468 545.804 648.861C537.383 648.255 518.755 645.419 515.743 643.423C512.741 641.418 448.67 546.899 448.67 546.899L467.568 434.098L479.785 420.507C479.785 420.507 478.09 535.706 479.785 545.649C481.48 555.602 515.796 619.656 512.469 612.809C509.133 605.972 505.526 582.344 506.726 585.451C507.934 588.557 516.346 618.406 520.557 619.656C524.759 620.897 538.59 629.599 538.59 627.118C538.59 624.665 555.73 535.062 556.271 532.263L542.792 630.224C542.792 630.224 545.199 632.09 547.607 630.224C550.005 628.358 566.487 541.302 566.487 541.302L566.767 541.246L567.56 541.106L568.128 541.003L569.165 540.816C569.165 540.816 552.412 628.768 557.822 631.053C563.232 633.329 569.165 620.895 569.165 620.895L574.575 539.874C581.878 538.615 591.481 536.964 591.481 536.964C591.481 536.964 609.514 633.33 604.708 635.821Z" fill="#842D54"/>
<path d="M640.323 637.22C639.872 643.749 630.405 643.749 622.29 643.423C614.175 643.087 602.454 649.346 599.298 648.861C596.142 648.385 590.732 615.299 585.142 585.917C579.543 556.534 585.142 529.484 585.142 529.484C585.782 525.464 590.146 525.1 595.267 525.865C598.639 526.359 602.336 527.348 605.519 528.085C613.553 529.95 619.585 520.623 624.994 524.205C629.962 527.498 639.123 614.676 640.232 633.844C640.323 635.531 640.359 636.688 640.323 637.22Z" fill="#CCA18B"/>
<path opacity="0.3" d="M640.323 637.22C639.872 643.749 630.405 643.749 622.29 643.423C614.175 643.087 602.454 649.346 599.298 648.861C596.142 648.385 590.732 615.299 585.142 585.917C579.543 556.534 585.142 529.484 585.142 529.484C585.782 525.464 590.146 525.1 595.267 525.865C592.508 534.596 590.281 545.696 590.281 558.755C590.281 592.914 607.908 635.821 611.497 635.821C615.076 635.821 620.486 635.821 618.232 628.825C615.978 621.829 608.359 578.884 611.497 586.132C614.626 593.38 624.544 634.888 625.896 635.821C626.617 636.315 633.731 635.093 640.232 633.844C640.323 635.531 640.359 636.688 640.323 637.22Z" fill="#842D54"/>
<path d="M451.159 393.297L437.454 558.754C437.454 558.754 272.31 563.418 266.72 563.073C266.639 563.064 266.594 563.064 266.594 563.064C265.241 562.71 254.25 461.624 248.841 411.095L248.823 410.936C247.029 394.183 245.857 383.037 245.857 383.037L260.978 375.743L263.89 374.344L355.406 427.345L371.185 419.416L383.808 427.345L423.183 387.235L451.159 393.297Z" fill="#D13430"/>
<path d="M451.159 393.297L437.454 558.754C437.454 558.754 272.31 563.418 266.72 563.073C266.639 563.064 266.594 563.064 266.594 563.064L248.84 411.095L248.822 410.936L258.289 411.048L281.47 520.818C281.47 520.818 299.052 519.689 335.568 514.951C372.084 510.212 409.953 522.488 412.658 520.622C415.363 518.757 426.633 400.461 426.633 400.461C426.633 400.461 392.822 454.861 388.764 455.794C384.707 456.727 371.218 441.336 371.218 441.336C371.218 441.336 356.756 462.324 352.248 461.158C347.983 460.057 269.541 384.054 260.975 375.743L263.887 374.344L355.403 427.345L371.182 419.416L383.805 427.345L423.18 387.235L451.159 393.297Z" fill="#842D54"/>
<path d="M260.029 372.024L276.56 355.136C277.159 354.524 278.072 354.41 278.79 354.859L371.026 412.518C371.799 413.001 372.789 412.829 373.374 412.109L410.758 366.096C411.453 365.24 412.688 365.182 413.453 365.968L433.739 386.804C434.388 387.47 434.485 388.534 433.968 389.319L393.982 450.085C393.241 451.211 391.66 451.202 390.931 450.067L374.299 424.18C373.47 422.89 371.615 423.094 371.055 424.536L361.126 450.11C360.67 451.285 359.29 451.695 358.32 450.945L260.223 375.003C259.297 374.288 259.205 372.866 260.029 372.024Z" fill="#CCA18B"/>
<path d="M371.473 507.563H370.973C369.887 507.563 369.007 506.683 369.007 505.597V422.476C369.007 421.39 369.887 420.51 370.973 420.51H371.473C372.559 420.51 373.439 421.39 373.439 422.476V505.597C373.439 506.683 372.559 507.563 371.473 507.563Z" fill="#842D54"/>
<path d="M383.581 466.521C386.444 466.521 388.765 464.119 388.765 461.157C388.765 458.194 386.444 455.793 383.581 455.793C380.718 455.793 378.397 458.194 378.397 461.157C378.397 464.119 380.718 466.521 383.581 466.521Z" fill="#842D54"/>
<path d="M383.581 495.341C386.444 495.341 388.765 492.939 388.765 489.977C388.765 487.014 386.444 484.613 383.581 484.613C380.718 484.613 378.397 487.014 378.397 489.977C378.397 492.939 380.718 495.341 383.581 495.341Z" fill="#842D54"/>
<path d="M582.393 1241.54C579.255 1259.17 574.188 1274.24 571.348 1275.71C565.938 1278.51 447.824 1295.3 441.512 1291.57C435.201 1287.83 426.184 1251.46 427.086 1241.2C427.988 1230.93 406.348 1188.96 404.545 1172.17C402.742 1155.38 397.9 1077.96 397.161 1054.64C396.431 1031.32 358.562 928.713 358.562 928.713C358.562 928.713 308.07 1054.64 308.972 1069.56C309.874 1084.49 300.857 1157.24 296.349 1168.44C291.841 1179.63 280.12 1216.01 281.021 1222.54C281.923 1229.07 273.808 1292.11 273.808 1292.11C273.808 1292.11 166.513 1283.17 162.906 1274.77C160.76 1269.77 152.835 1249.19 146.794 1232.19C142.701 1220.67 139.464 1210.8 139.464 1208.55C139.464 1204.04 158.128 1126.54 165.431 1091.03C167.207 1082.39 168.316 1076.23 168.316 1074.23C168.316 1063.97 165.611 1004.27 172.824 976.286C180.037 948.303 189.955 821.444 190.857 807.452C191.759 793.46 191.759 673.131 195.365 661.938C198.972 650.745 199.873 620.896 199.873 620.896C199.873 620.896 220.611 596.644 222.414 587.316C223.072 583.921 224.082 574.49 224.93 561.338C224.993 560.424 225.056 559.482 225.11 558.53C225.128 558.81 225.173 559.873 225.263 561.496C225.768 570.544 227.391 597.007 229.627 603.173C232.269 610.467 269.362 602.613 274.411 598.77L274.708 598.509C277.332 595.795 276.133 564.724 275.285 548.036C274.978 541.796 274.708 537.57 274.708 537.57C274.708 537.57 312.577 526.377 352.249 524.511C391.921 522.645 423.181 525.752 423.181 525.752C423.181 525.752 422.198 532.645 421.188 541.992C419.096 561.394 416.896 591.346 423.181 591.98C432.495 592.913 455.938 592.913 456.839 591.98C457.028 591.784 457.623 588.23 458.444 582.755C461.383 563.055 467.217 518.449 467.677 514.951C466.397 528.989 465.883 540.164 466.757 545.341C470.364 566.795 493.806 688.057 497.413 764.545C501.02 841.033 532.577 963.228 535.282 983.749C537.987 1004.27 545.2 1074.23 547.003 1081.69C548.04 1085.96 557.354 1114.43 566.487 1142.7C566.496 1142.71 566.496 1142.72 566.496 1142.72C573.294 1163.78 579.984 1184.74 583.068 1195.49C586.495 1207.47 585.242 1225.55 582.393 1241.54Z" fill="#718420"/>
<path opacity="0.5" d="M222.981 643.423L209.186 725.946L241.952 731.058L235.154 803.041C235.154 803.041 166.188 998.282 181.065 989.886C195.942 981.491 204.859 959.104 209.187 970.298C213.515 981.491 165.43 1091.03 165.43 1091.03C167.206 1082.39 168.315 1076.23 168.315 1074.23C168.315 1063.97 165.61 1004.27 172.823 976.287C180.036 948.304 189.954 821.445 190.856 807.453C191.758 793.461 191.758 673.132 195.364 661.939C198.971 650.746 199.872 620.897 199.872 620.897C199.872 620.897 220.61 596.645 222.413 587.317C223.071 583.922 224.081 574.491 224.929 561.339C225.037 561.386 225.145 561.442 225.263 561.498C239.311 568.382 255.603 580.07 274.709 598.511L274.412 598.772L222.981 643.423Z" fill="#545325"/>
<g opacity="0.49">
<path d="M423.181 525.752C423.181 525.752 422.198 532.645 421.188 541.992C405.608 537.888 386.096 535.08 367.576 536.013C330.609 537.879 276.312 550.005 276.312 550.005C276.312 550.005 275.942 549.324 275.284 548.037C274.977 541.797 274.707 537.571 274.707 537.571C274.707 537.571 312.576 526.378 352.248 524.512C391.922 522.646 423.181 525.752 423.181 525.752Z" fill="white"/>
</g>
<g opacity="0.49">
<path d="M566.488 1142.7C565.947 1141.99 548.618 1118.61 529.981 1030.46C511.047 940.924 489.299 804.654 483.285 796.259C477.271 787.864 486.594 774.805 483.285 733.763C480.833 703.354 467.497 624.833 458.445 582.755C461.384 563.055 467.218 518.449 467.678 514.951C466.398 528.989 465.884 540.164 466.758 545.341C470.365 566.795 493.807 688.057 497.414 764.545C501.021 841.033 532.578 963.228 535.283 983.749C537.988 1004.27 545.201 1074.23 547.004 1081.69C548.04 1085.96 557.354 1114.43 566.488 1142.7Z" fill="white"/>
</g>
<path opacity="0.5" d="M582.393 1241.54C579.255 1259.17 574.188 1274.24 571.348 1275.71C565.938 1278.51 447.824 1295.3 441.512 1291.57C435.201 1287.83 426.184 1251.46 427.086 1241.2C427.988 1230.93 406.348 1188.96 404.545 1172.17C402.742 1155.38 397.9 1077.96 397.161 1054.64C396.431 1031.32 358.562 928.713 358.562 928.713L362.303 907.567C362.303 907.567 435.805 887.671 434.596 890.161C433.397 892.642 385.312 920.626 385.312 920.626C385.312 920.626 416.375 1029.06 420.432 1036.06C424.489 1043.05 417.727 1061.24 416.375 1069.64C415.022 1078.03 414.986 1103.22 434.615 1103.22C454.243 1103.22 494.818 1096.22 483.997 1103.22C473.177 1110.21 432.604 1115.81 432.604 1120.01C432.604 1124.2 447.481 1196.95 456.948 1205.35C466.415 1213.74 557.031 1223.54 542.154 1226.34C527.277 1229.13 471.826 1231.93 478.589 1234.73C484.781 1237.3 531.883 1262.19 582.393 1241.54Z" fill="#545325"/>
<path opacity="0.5" d="M358.561 928.714C358.561 928.714 308.069 1054.64 308.971 1069.56C309.873 1084.49 300.856 1157.25 296.348 1168.44C291.84 1179.63 280.119 1216.01 281.02 1222.54C281.922 1229.07 273.807 1292.11 273.807 1292.11C273.807 1292.11 166.512 1283.17 162.905 1274.78C160.759 1269.77 152.834 1249.19 146.793 1232.19C179.522 1246.6 223.369 1253.9 232.449 1247.32C245.974 1237.53 263.555 1143.79 264.538 1131.2C265.521 1118.61 266.26 1099.02 275.727 1091.03C285.194 1083.03 283.842 1071.04 271.67 1057.05C259.498 1043.05 262.203 1037.46 285.195 1015.07C308.187 992.685 329.826 939.526 333.884 929.732C337.941 919.938 362.304 907.569 362.304 907.569L358.561 928.714Z" fill="#545325"/>
<path d="M253.364 641.417V662.56C253.364 662.56 281.221 656.341 344.983 651.988C408.745 647.635 440.316 648.879 440.316 648.879V628.98C440.316 628.98 402.554 622.761 346.84 624.627C291.126 626.493 253.364 641.417 253.364 641.417Z" fill="#B9B419"/>
<path opacity="0.47" d="M347.238 803.038C327.521 803.038 306.23 796.202 290.695 789.845C271.461 781.973 254.172 771.938 252.347 769.271C251.523 768.067 250.497 766.568 251.816 713.869C252.457 688.265 253.369 662.712 253.378 662.457L258.784 662.665C257.469 699.381 255.849 758.853 256.954 766.159C262.993 771.201 319.349 802.955 358.137 796.606C398.056 790.069 432.162 768.462 434.873 763.774C434.332 754.721 434.832 659.888 434.892 648.865L440.302 648.897C440.061 693.029 439.856 759.989 440.281 763.578C440.507 765.447 439.774 767.867 432.94 772.882C428.444 776.181 422.128 779.939 415.156 783.462C404.798 788.696 383.728 798.082 358.983 802.134C355.174 802.756 351.238 803.037 347.238 803.038Z" fill="#345C7F"/>
<path d="M274.708 598.509C271.101 602.24 232.331 610.635 229.626 603.173C226.993 595.907 225.208 560.405 225.109 558.53V558.455C226.498 535.518 227.318 502.591 225.118 470.718C221.511 418.482 209.186 389.566 209.186 389.566C209.186 389.566 250.066 370.313 252.465 374.343C254.872 378.373 274.708 537.571 274.708 537.571C274.708 537.571 278.315 594.778 274.708 598.509Z" fill="#718420"/>
<path d="M483.285 395.788C483.285 398.614 471.735 470.634 467.705 514.736C467.705 514.736 467.696 514.81 467.678 514.95C467.092 519.427 457.715 591.074 456.84 591.979C455.938 592.912 432.496 592.912 423.182 591.979C413.868 591.046 423.182 525.751 423.182 525.751C423.182 525.751 432.198 372.793 438.807 374.342C445.416 375.882 483.285 392.057 483.285 395.788Z" fill="#718420"/>
<path d="M251.107 580.358C255.723 580.358 259.465 576.487 259.465 571.711C259.465 566.935 255.723 563.064 251.107 563.064C246.491 563.064 242.749 566.935 242.749 571.711C242.749 576.487 246.491 580.358 251.107 580.358Z" fill="#F9CB64"/>
<path d="M440.316 576.051C444.932 576.051 448.674 572.18 448.674 567.404C448.674 562.628 444.932 558.757 440.316 558.757C435.7 558.757 431.958 562.628 431.958 567.404C431.958 572.18 435.7 576.051 440.316 576.051Z" fill="#F9CB64"/>
<path d="M137.659 1613.38C137.659 1613.38 137.208 1626.43 137.659 1628.77C138.11 1631.1 205.958 1648.82 211.481 1648.35C217.004 1647.89 269.299 1637.64 271.553 1630.87C273.807 1624.1 274.709 1615.87 274.709 1615.87L137.659 1613.38Z" fill="#842D54"/>
<path d="M274.708 1615.87C269.298 1625.81 226.984 1632.66 214.776 1635.76C205.543 1638.11 166.106 1629.78 147.478 1621.27C141.5 1618.54 137.659 1615.79 137.659 1613.38C137.659 1606.62 154.826 1554.31 166.043 1518.68C168.468 1511 170.605 1504.08 172.237 1498.57C174.194 1491.99 175.42 1487.41 175.528 1485.89C175.97 1479.5 172.183 1377.65 170.154 1324.24C169.424 1305.05 168.919 1292.11 168.919 1292.11L269.298 1302.45C269.298 1302.45 254.223 1438.64 254.547 1454.18C254.872 1469.73 253.609 1507.04 254.538 1511.4C255.476 1515.74 280.118 1605.91 274.708 1615.87Z" fill="#9B553A"/>
<path d="M274.709 1615.87C269.299 1625.81 226.985 1632.66 214.777 1635.76C205.544 1638.11 166.107 1629.78 147.479 1621.27C185.654 1627.45 249.815 1618.41 254.549 1613.89C260.419 1608.29 244.622 1529.94 239.212 1521.55C233.802 1513.15 204.057 1511.76 181.065 1514.55C176.467 1515.11 171.327 1516.62 166.044 1518.68C168.469 1511 170.606 1504.08 172.238 1498.57C193.399 1499.11 220.818 1499.45 225.687 1497.77C233.802 1494.97 225.687 1371.84 225.687 1363.45C225.687 1359.58 198.971 1342.03 170.155 1324.24C169.425 1305.04 168.92 1292.11 168.92 1292.11L269.299 1302.45C269.299 1302.45 254.224 1438.64 254.548 1454.18C254.873 1469.73 253.61 1507.04 254.539 1511.4C255.477 1515.74 280.119 1605.91 274.709 1615.87Z" fill="#893054"/>
<path d="M150.282 1294.99C150.282 1294.99 143.704 1260.9 150.282 1260.16C156.86 1259.42 215.2 1273.22 221.812 1274.47C228.424 1275.71 280.719 1271.98 281.32 1273.84C281.921 1275.71 280.719 1285.04 281.32 1294.99C281.921 1304.94 282.869 1317.37 281.493 1319.24C280.117 1321.1 227.822 1326.7 223.615 1326.7C219.408 1326.7 149.08 1307.42 150.282 1294.99Z" fill="#9B553A"/>
<path d="M677.147 1618.68C676.335 1623.55 674.911 1628.82 674.136 1633.74C672.333 1645.24 666.021 1639.49 620.038 1646.62C574.054 1653.74 526.268 1636.61 521.759 1639.24C517.251 1641.86 511.841 1621.27 510.362 1616.47C508.883 1611.68 507.333 1631.82 505.529 1636.61C503.726 1641.41 465.857 1638.53 458.59 1636.61C451.323 1634.7 451.431 1624.15 452.684 1606.88C452.792 1605.44 452.927 1603.45 453.081 1600.98C454.83 1573.98 459.456 1490.43 458.446 1454.39C457.346 1415.07 446.923 1306.7 446.923 1306.7L566.489 1292.87C566.489 1292.87 565.01 1306.29 562.964 1326.19C557.581 1378.54 548.249 1475.81 551.513 1491.8C551.865 1493.52 552.865 1495.61 554.416 1498.02C572.377 1525.89 663.965 1595.09 673.667 1602.68C673.856 1602.83 674.01 1602.95 674.136 1603.05C678.265 1606.35 678.256 1612.15 677.147 1618.68Z" fill="#9B553A"/>
<path d="M677.147 1618.68C676.335 1623.55 674.911 1628.82 674.136 1633.74C672.333 1645.24 666.021 1639.49 620.038 1646.62C574.054 1653.74 526.268 1636.61 521.759 1639.24C517.251 1641.86 511.841 1621.27 510.362 1616.47C508.883 1611.68 507.333 1631.82 505.529 1636.61C503.726 1641.41 465.857 1638.53 458.59 1636.61C451.323 1634.7 451.431 1624.15 452.684 1606.88C452.792 1605.44 452.927 1603.45 453.081 1600.98C454.83 1573.98 459.456 1490.43 458.446 1454.39C457.346 1415.07 446.923 1306.7 446.923 1306.7L566.489 1292.87C566.489 1292.87 565.01 1306.29 562.964 1326.19C561.251 1326.99 559.538 1327.73 557.825 1328.44C519.956 1344.1 508.235 1351.78 506.432 1355.61C504.629 1359.45 474.875 1571.4 477.58 1565.65C480.285 1559.89 493.26 1527.28 512.473 1510.98C531.678 1494.68 551.514 1491.8 551.514 1491.8L554.417 1498.02C554.417 1498.02 520.858 1501.39 502.825 1534C484.792 1566.6 477.408 1600.99 477.408 1600.99C477.408 1600.99 596.596 1616.47 635.366 1609.76C646.663 1607.8 660.179 1605.28 673.668 1602.68C673.857 1602.83 674.011 1602.95 674.137 1603.05C678.265 1606.35 678.256 1612.15 677.147 1618.68Z" fill="#893054"/>
<path d="M436.103 1313.41C436.103 1313.41 435.304 1281.34 434.228 1277.91C433.152 1274.48 491.455 1283.64 512.468 1277.91C533.481 1272.18 585.406 1258.75 585.14 1268.34C584.874 1277.93 589.833 1300.95 582.394 1304.78C574.956 1308.62 505.529 1321.09 494.71 1322.05C483.89 1323.01 436.266 1319.19 436.103 1313.41Z" fill="#9B553A"/>
<path d="M677.147 1618.68C676.335 1623.55 674.911 1628.82 674.136 1633.74C672.333 1645.24 666.021 1639.49 620.038 1646.62C574.054 1653.74 526.268 1636.61 521.759 1639.24C517.251 1641.86 511.841 1621.27 510.362 1616.47C508.883 1611.68 507.333 1631.82 505.529 1636.61C503.726 1641.41 465.857 1638.53 458.59 1636.61C451.323 1634.7 451.431 1624.15 452.684 1606.88C452.792 1605.44 452.927 1603.45 453.081 1600.98C483.412 1610.65 526.808 1620.84 582.394 1623.19C625.24 1625 655.76 1622.5 677.147 1618.68Z" fill="#842D54"/>
<path d="M240.745 785.999C240.745 785.999 244.951 794.704 242.543 799.362C240.151 804.028 215.198 803.418 205.582 803.041C195.965 802.665 189.451 807.456 189.451 807.456V826.179C189.451 826.179 199.268 834.809 200.774 837.301C202.279 839.793 199.871 841.34 197.463 843.205C195.071 845.07 180.036 840.721 174.625 836.992C169.215 833.262 149.68 810.876 148.183 808.075C146.678 805.282 101.597 776.365 52.9033 754.589C4.21827 732.83 4.21826 721.633 1.21526 711.682C-1.79474 701.739 5.41327 670.64 6.02327 662.562C6.37427 657.846 15.3473 642.735 22.7563 630.969C23.1323 630.375 23.5003 629.79 23.8683 629.213C24.3113 628.519 24.7463 627.833 25.1643 627.173C25.3233 626.93 25.4733 626.688 25.6243 626.454C25.7833 626.212 25.9333 625.977 26.0763 625.752C26.3103 625.384 26.5443 625.025 26.7703 624.682C34.5723 643.547 78.1573 675.483 100.367 688.353C99.3553 689.758 98.4273 691.062 97.6663 692.166C97.5663 692.317 97.4653 692.467 97.3653 692.609C97.1313 692.944 96.9223 693.261 96.7293 693.554C96.6293 693.705 96.5373 693.838 96.4533 693.972C95.9343 694.766 95.6253 695.318 95.5833 695.519C95.2823 697.075 106.103 703.915 117.526 713.866C128.941 723.809 166.211 760.812 169.515 760.812C172.827 760.812 196.868 743.402 199.268 742.783C201.676 742.156 235.034 743.093 236.539 743.093C238.036 743.093 243.756 745.585 244.659 750.552C245.562 755.528 240.745 764.542 240.745 764.542C240.745 764.542 245.562 768.899 246.456 774.184C247.36 779.468 240.745 785.999 240.745 785.999Z" fill="#F6BE8E"/>
<path d="M100.366 688.352C99.3539 689.757 98.4259 691.061 97.6649 692.165C97.5649 692.316 97.4559 692.466 97.3639 692.608C97.1299 692.943 96.9209 693.26 96.7279 693.553C96.6279 693.695 96.5359 693.837 96.4519 693.971C95.9329 694.765 95.6239 695.317 95.5819 695.518C95.5819 695.518 63.1189 688.678 44.4879 667.538C35.8079 657.679 28.2979 643.404 22.7539 630.97C23.1299 630.376 23.4979 629.791 23.8659 629.214C24.3089 628.52 24.7439 627.834 25.1619 627.174C25.3209 626.931 25.4709 626.689 25.6219 626.455C25.7719 626.221 25.9229 625.987 26.0739 625.753C26.3079 625.385 26.5419 625.026 26.7679 624.683C34.5719 643.546 78.1559 675.482 100.366 688.352Z" fill="#E27785"/>
<path d="M201.136 764.982C203.688 764.24 205.739 762.761 208.124 761.623C211.637 759.947 215.421 760.017 219.209 759.967C226.14 759.875 233.03 760.225 239.196 763.837C240.713 764.726 242.078 762.309 240.561 761.421C234.432 757.83 227.628 757.135 220.697 757.155C217.528 757.164 214.215 757.045 211.089 757.685C207.191 758.483 204.198 761.184 200.416 762.284C198.744 762.771 199.455 765.471 201.136 764.982Z" fill="#E27785"/>
<path d="M202.994 787.344C214.791 780.154 228.267 784.183 240.414 788.112C242.079 788.651 242.792 785.95 241.133 785.414C228.237 781.242 214.097 777.329 201.629 784.928C200.13 785.841 201.489 788.261 202.994 787.344Z" fill="#E27785"/>
<path d="M809.453 537.645C809.173 537.804 808.885 537.934 808.578 538.037C810.742 538.774 812.311 540.873 812.311 543.363V555.191C812.311 555.844 812.203 556.478 811.995 557.057C811.499 558.522 810.417 559.706 809.047 560.322C808.921 560.378 808.794 560.434 808.659 560.481C810.778 561.236 812.311 563.317 812.311 565.77V576.73C812.311 579.818 809.886 582.327 806.901 582.327C807.83 582.327 808.704 582.569 809.471 582.999C810.706 583.689 811.644 584.855 812.068 586.264C812.23 586.786 812.312 587.346 812.312 587.924V598.884C812.312 601.971 809.887 604.481 806.902 604.481H774.822C771.829 604.481 769.412 601.972 769.412 598.884V587.924C769.412 587.346 769.493 586.786 769.655 586.264C770.079 584.855 771.016 583.689 772.243 582.999C773.009 582.57 773.884 582.327 774.822 582.327H768.132C765.148 582.327 762.722 579.818 762.722 576.73V565.77C762.722 563.597 763.921 561.713 765.67 560.789H765.499C764.733 560.789 764.002 560.621 763.344 560.323C761.974 559.707 760.9 558.523 760.405 557.058C760.198 556.47 760.09 555.845 760.09 555.192V543.364C760.09 540.267 762.515 537.767 765.5 537.767H765.797C765.716 537.73 765.644 537.692 765.572 537.646C764.337 536.956 763.39 535.79 762.966 534.381C762.813 533.859 762.723 533.299 762.723 532.721V521.761C762.723 518.674 765.148 516.164 768.133 516.164H806.904C809.888 516.164 812.314 518.673 812.314 521.761V532.721C812.314 533.299 812.233 533.859 812.061 534.381C811.643 535.789 810.688 536.964 809.453 537.645Z" fill="#F6BE8E"/>
<path d="M812.058 534.381C811.643 535.79 810.688 536.965 809.452 537.646H765.57C764.335 536.956 763.388 535.79 762.964 534.381H812.058Z" fill="#E27785"/>
<path d="M811.995 557.057C811.499 558.522 810.417 559.706 809.047 560.322H763.343C761.973 559.706 760.899 558.522 760.404 557.057H811.995Z" fill="#E27785"/>
<path d="M812.067 586.262H769.654C770.078 584.853 771.015 583.687 772.242 582.997H809.471C810.706 583.688 811.643 584.854 812.067 586.262Z" fill="#E27785"/>
</svg>
