<svg width="100" height="140" viewBox="0 0 100 140" fill="none" xmlns="http://www.w3.org/2000/svg">
<path d="M29.1843 28.728C29.1843 28.728 25.1971 31.9196 19.3322 26.2468C13.4673 20.5741 11.281 10.8247 11.281 10.8247C11.281 10.8247 19.975 12.2758 24.8388 16.5628C29.7025 20.8497 29.1843 28.728 29.1843 28.728Z" fill="#FFA65C"/>
<path d="M47.8328 48.8697C47.8328 48.8697 40.1856 54.5276 34.8493 53.233C29.5128 51.9386 27.7957 50.9137 28.6973 49.4387C29.5986 47.9639 34.3973 43.367 39.5227 43.5994C44.6479 43.832 47.8328 48.8697 47.8328 48.8697Z" fill="#F9CB64"/>
<path d="M60.1668 61.2029C60.1668 61.2029 52.5196 66.8609 47.1832 65.5663C41.8467 64.2719 40.1297 63.247 41.0312 61.772C41.9326 60.2971 46.7313 55.7003 51.8569 55.9328C56.9821 56.1654 60.1668 61.2029 60.1668 61.2029Z" fill="#F9CB64"/>
<path d="M72.4998 73.5364C72.4998 73.5364 64.8526 79.1943 59.5162 77.8998C54.1797 76.6054 52.4627 75.5805 53.3642 74.1055C54.2656 72.6306 59.0643 68.0337 64.1899 68.2663C69.3151 68.4989 72.4998 73.5364 72.4998 73.5364Z" fill="#F9CB64"/>
<path d="M84.8338 85.8699C84.8338 85.8699 77.1866 91.5278 71.8502 90.2333C66.5137 88.9389 64.7967 87.914 65.6982 86.4389C66.5996 84.9641 71.3982 80.3672 76.5239 80.5998C81.6491 80.8324 84.8338 85.8699 84.8338 85.8699Z" fill="#F9CB64"/>
<path d="M97.1668 98.2034C97.1668 98.2034 89.5195 103.861 84.1832 102.567C78.8467 101.272 77.1297 100.247 78.0312 98.7724C78.9326 97.2976 83.7313 92.7007 88.8569 92.9333C93.9819 93.1657 97.1668 98.2034 97.1668 98.2034Z" fill="#F9CB64"/>
<path d="M109.5 110.537C109.5 110.537 101.853 116.195 96.5163 114.9C91.1798 113.606 89.4627 112.581 90.3642 111.106C91.2656 109.631 96.0643 105.034 101.19 105.267C106.315 105.499 109.5 110.537 109.5 110.537Z" fill="#F9CB64"/>
<path d="M53.9998 55.0362C53.9998 55.0362 46.3526 60.6941 41.0163 59.3995C35.6798 58.1051 33.9627 57.0802 34.8642 55.6052C35.7656 54.1304 40.5643 49.5335 45.6899 49.7661C50.8151 49.9987 53.9998 55.0362 53.9998 55.0362Z" fill="#FFA65C"/>
<path d="M66.3328 67.3697C66.3328 67.3697 58.6856 73.0276 53.3493 71.733C48.0128 70.4386 46.2957 69.4137 47.1973 67.9387C48.0986 66.4639 52.8973 61.867 58.0227 62.0994C63.148 62.332 66.3328 67.3697 66.3328 67.3697Z" fill="#FFA65C"/>
<path d="M78.6668 79.7032C78.6668 79.7032 71.0195 85.3611 65.6832 84.0665C60.3467 82.7721 58.6297 81.7472 59.5312 80.2722C60.4326 78.7973 65.2313 74.2005 70.3569 74.4331C75.4819 74.6655 78.6668 79.7032 78.6668 79.7032Z" fill="#FFA65C"/>
<path d="M90.9998 92.0364C90.9998 92.0364 83.3526 97.6943 78.0162 96.3998C72.6797 95.1054 70.9627 94.0805 71.8642 92.6055C72.7656 91.1306 77.5643 86.5337 82.6899 86.7663C87.8151 86.9989 90.9998 92.0364 90.9998 92.0364Z" fill="#FFA65C"/>
<path d="M103.334 104.37C103.334 104.37 95.6866 110.028 90.3502 108.733C85.0137 107.439 83.2967 106.414 84.1982 104.939C85.0996 103.464 89.8983 98.8673 95.0239 99.0998C100.149 99.3324 103.334 104.37 103.334 104.37Z" fill="#FFA65C"/>
<path d="M41.0428 42.0794C41.0428 42.0794 33.3955 47.7373 28.0592 46.4427C22.7227 45.1484 21.0056 44.1235 21.9072 42.6484C22.8086 41.1736 27.6072 36.5767 32.7329 36.8093C37.8581 37.0419 41.0428 42.0794 41.0428 42.0794Z" fill="#FFA65C"/>
<path d="M34.2527 35.2891C34.2527 35.2891 26.6055 40.947 21.2692 39.6524C15.9327 38.3581 14.2156 37.3332 15.1172 35.8581C16.0186 34.3833 20.8172 29.7864 25.9428 30.019C31.0681 30.2516 34.2527 35.2891 34.2527 35.2891Z" fill="#F9CB64"/>
<path d="M48.8697 47.8333C48.8697 47.8333 54.5274 40.1862 53.233 34.8497C51.9386 29.5132 50.9138 27.7962 49.4387 28.6977C47.9639 29.5991 43.3668 34.3979 43.5994 39.5232C43.8322 44.6482 48.8697 47.8333 48.8697 47.8333Z" fill="#F9CB64"/>
<path d="M61.2037 60.1665C61.2037 60.1665 66.8614 52.5195 65.567 47.183C64.2726 41.8465 63.2477 40.1294 61.7727 41.031C60.2979 41.9324 55.7008 46.7312 55.9336 51.8566C56.1663 56.9817 61.2037 60.1665 61.2037 60.1665Z" fill="#F9CB64"/>
<path d="M73.5367 72.5C73.5367 72.5 79.1944 64.853 77.9 59.5165C76.6056 54.18 75.5807 52.4629 74.1057 53.3645C72.6309 54.2658 68.0338 59.0647 68.2666 64.1901C68.4994 69.3152 73.5367 72.5 73.5367 72.5Z" fill="#F9CB64"/>
<path d="M85.8707 84.8335C85.8707 84.8335 91.5284 77.1865 90.234 71.85C88.9396 66.5135 87.9147 64.7964 86.4397 65.698C84.9648 66.5993 80.3678 71.3982 80.6006 76.5236C80.8333 81.6487 85.8707 84.8335 85.8707 84.8335Z" fill="#F9CB64"/>
<path d="M98.2037 97.167C98.2037 97.167 103.861 89.52 102.567 84.1835C101.273 78.847 100.248 77.1299 98.7727 78.0315C97.2979 78.9328 92.7008 83.7317 92.9336 88.8571C93.1662 93.982 98.2037 97.167 98.2037 97.167Z" fill="#F9CB64"/>
<path d="M55.0367 54C55.0367 54 60.6944 46.353 59.4 41.0165C58.1056 35.68 57.0807 33.9629 55.6057 34.8645C54.1309 35.7658 49.5338 40.5647 49.7666 45.6901C49.9994 50.8152 55.0367 54 55.0367 54Z" fill="#FFA65C"/>
<path d="M67.3697 66.3335C67.3697 66.3335 73.0274 58.6865 71.733 53.35C70.4386 48.0135 69.4138 46.2964 67.9387 47.198C66.4639 48.0993 61.8668 52.8982 62.0994 58.0234C62.3322 63.1485 67.3697 66.3335 67.3697 66.3335Z" fill="#FFA65C"/>
<path d="M79.7037 78.667C79.7037 78.667 85.3614 71.02 84.067 65.6835C82.7726 60.347 81.7477 58.6299 80.2727 59.5315C78.7979 60.4328 74.2008 65.2317 74.4336 70.3571C74.6662 75.482 79.7037 78.667 79.7037 78.667Z" fill="#FFA65C"/>
<path d="M92.0367 91.0005C92.0367 91.0005 97.6944 83.3535 96.4 78.017C95.1056 72.6805 94.0807 70.9634 92.6057 71.865C91.1309 72.7663 86.5338 77.5652 86.7666 82.6906C86.9994 87.8157 92.0367 91.0005 92.0367 91.0005Z" fill="#FFA65C"/>
<path d="M104.371 103.334C104.371 103.334 110.028 95.687 108.734 90.3505C107.44 85.014 106.415 83.2969 104.94 84.1985C103.465 85.0998 98.8678 89.8987 99.1006 95.0241C99.3333 100.149 104.371 103.334 104.371 103.334Z" fill="#FFA65C"/>
<path d="M42.0797 41.0432C42.0797 41.0432 47.7374 33.3962 46.443 28.0597C45.1486 22.7232 44.1237 21.0061 42.6487 21.9077C41.1738 22.8091 36.5768 27.6079 36.8096 32.7333C37.0423 37.8584 42.0797 41.0432 42.0797 41.0432Z" fill="#FFA65C"/>
<path d="M35.2896 34.253C35.2896 34.253 40.9473 26.6059 39.6529 21.2694C38.3586 15.9329 37.3337 14.2158 35.8586 15.1174C34.3838 16.0188 29.7868 20.8176 30.0195 25.943C30.2523 31.0681 35.2896 34.253 35.2896 34.253Z" fill="#F9CB64"/>
<path d="M24.0946 21.7919C23.7502 21.4527 23.2062 21.4461 22.8759 21.7765L22.233 22.4193C21.9027 22.7496 21.9092 23.2936 22.2484 23.638C30.4219 31.9417 117.824 120.741 126.051 129.318C126.393 129.675 126.95 129.69 127.288 129.352L128.227 128.413L128.87 127.77L129.809 126.831C130.147 126.494 130.131 125.936 129.775 125.594C121.197 117.367 32.398 29.9651 24.0946 21.7919Z" fill="#D1752A"/>
</svg>
