<svg width="156" height="137" viewBox="0 0 156 137" fill="none" xmlns="http://www.w3.org/2000/svg">
<path d="M10.8556 134.904C10.8556 134.904 -6.89495 66.231 29.2076 41.8888C65.311 17.5467 66.3334 2.17508 93.6178 3.31196C120.902 4.44884 149.859 29.3835 145.612 58.4107C141.365 87.4378 158.417 113.039 152.961 134.903H10.8556V134.904Z" fill="#FFF5F6"/>
<path d="M53.5079 131.146L48.9594 69.8958H40.2988L47.5532 131.146H53.5079Z" fill="#7A4C53"/>
<path d="M30.2347 48.9366C30.3542 47.1071 31.7679 45.6278 33.5924 45.4478C37.8357 45.0291 46.2054 44.4146 49.089 45.7254C53.0155 47.5103 47.6612 62.1453 49.089 69.1063H32.8476C32.8476 69.1063 29.7951 55.6743 30.2347 48.9366Z" fill="#D7E1F4"/>
<path d="M45.7714 38.4648C45.7714 38.4648 47.1804 41.0612 47.5534 43.1542L47.3432 43.3029C47.3432 43.3029 46.356 39.8512 44.8818 38.7348L45.7714 38.4648Z" fill="#5E3531"/>
<path d="M44.13 32.179C44.13 32.179 43.0151 30.1745 40.4843 30.3642C37.9539 30.5539 33.6832 33.4995 35.5498 37.9419C35.5498 37.9419 34.063 38.9049 34.4111 39.221C34.7592 39.5374 35.4551 38.9204 35.4551 38.9204C35.4551 38.9204 34.5378 40.2405 35.044 40.2527C35.5502 40.2649 35.9296 39.6335 35.9296 39.6335C35.9296 39.6335 32.9247 42.9221 34 44.567C35.0757 46.2118 39.1246 45.1048 39.1246 45.1048C39.1246 45.1048 45.8411 45.9774 46.6216 45.6678C47.4017 45.3579 45.7796 39.8329 45.7796 39.8329C45.7796 39.8329 47.4309 34.6875 46.1828 33.2111C44.9343 31.7351 44.13 32.179 44.13 32.179Z" fill="#5E3531"/>
<path d="M40.35 48.2526C39.7603 48.2526 39.2264 48.0135 38.8402 47.6273C38.4539 47.241 38.2148 46.7071 38.2148 46.1174V38.8577H42.4852V46.1174C42.4852 47.2964 41.529 48.2526 40.35 48.2526Z" fill="#F6C19F"/>
<path d="M42.1527 43.0016C39.9077 43.0016 38.0879 41.1818 38.0879 38.9368V36.1216C38.0879 33.8767 39.9077 32.0569 42.1527 32.0569C44.3976 32.0569 46.2174 33.8767 46.2174 36.1216V38.9368C46.2174 39.7382 45.9856 40.4856 45.5849 41.1152C44.8638 42.2488 43.5963 43.0016 42.1527 43.0016Z" fill="#F6C19F"/>
<path d="M39.733 38.5413C39.733 39.4496 38.9965 40.1862 38.0882 40.1862C37.1799 40.1862 36.4434 39.4496 36.4434 38.5413C36.4434 37.633 37.1799 36.8965 38.0882 36.8965C38.9968 36.8965 39.733 37.633 39.733 38.5413Z" fill="#F6C19F"/>
<path d="M38.1057 39.2828C37.8462 39.4013 37.5009 39.2007 37.3339 38.8353C37.1672 38.4699 37.2421 38.0775 37.5016 37.9591C37.7612 37.8407 38.1064 38.0412 38.2735 38.4066C38.4401 38.772 38.3649 39.1644 38.1057 39.2828Z" fill="#BD695D"/>
<path d="M38.8164 41.2583C38.8164 41.2583 39.733 43.1163 42.4848 42.9877V44.2301C42.4848 44.2301 39.1652 44.1491 38.8164 41.2583Z" fill="#BD695D"/>
<path d="M42.6723 36.6372C42.7616 36.9328 42.371 36.6732 42.0182 36.7798C41.6654 36.8863 41.4836 37.3187 41.3943 37.0231C41.305 36.7276 41.5189 36.4014 41.8717 36.2948C42.2245 36.1883 42.583 36.3416 42.6723 36.6372Z" fill="#5E3531"/>
<path d="M46.363 37.0811C46.2917 37.3698 46.0959 36.9626 45.751 36.8777C45.4061 36.7924 45.0432 37.0613 45.1145 36.7726C45.1858 36.4838 45.5231 36.319 45.868 36.4039C46.2129 36.4892 46.4343 36.7924 46.363 37.0811Z" fill="#5E3531"/>
<path d="M42.535 37.4843C42.535 37.6737 42.3817 37.827 42.1923 37.827C42.003 37.827 41.8496 37.6737 41.8496 37.4843C41.8496 37.295 42.003 37.1416 42.1923 37.1416C42.3817 37.1416 42.535 37.295 42.535 37.4843Z" fill="#5E3531"/>
<path d="M45.7794 37.6053C45.7794 37.7914 45.6286 37.9422 45.4424 37.9422C45.2563 37.9422 45.1055 37.7914 45.1055 37.6053C45.1055 37.4192 45.2563 37.2683 45.4424 37.2683C45.6282 37.268 45.7794 37.4192 45.7794 37.6053Z" fill="#5E3531"/>
<path d="M44.0735 36.9155C44.0735 36.9155 43.8554 37.994 44.1905 38.1186C44.5253 38.2431 44.8447 38.3288 44.7277 38.6247C44.611 38.9207 43.7308 39.1543 43.544 38.687C43.3571 38.2201 43.949 36.7092 44.0735 36.9155Z" fill="#BD695D"/>
<path d="M44.1371 40.2481C44.0748 40.5804 43.4844 40.7488 42.8184 40.6239C42.1524 40.4994 41.6628 40.1286 41.7251 39.7963C41.7873 39.464 42.2975 39.725 42.9635 39.8496C43.6295 39.9741 44.1993 39.9154 44.1371 40.2481Z" fill="white"/>
<path d="M44.2809 32.8791C44.2809 32.8791 42.0972 35.1518 39.733 35.8898C39.733 35.8898 38.4727 36.2833 38.2549 37.1833L38.0882 36.8964C38.0882 36.8964 36.4434 30.5701 43.8169 32.0565C43.8169 32.0565 46.4874 32.8752 46.154 35.4049C46.154 35.4049 44.534 33.9598 44.2809 32.8791Z" fill="#5E3531"/>
<path d="M44.3278 32.5103C44.3278 32.5103 44.3829 34.7541 42.2268 35.7877C40.0708 36.8209 36.9496 38.276 36.5068 40.2531L36.2695 40.1264C36.2695 40.1264 36.6184 38.5745 39.0142 37.065C41.41 35.5555 43.7349 35.2236 43.8771 32.6769L44.3278 32.5103Z" fill="#5E3531"/>
<path d="M32.8476 69.106C32.8476 69.106 28.6993 78.0314 32.0311 84.4394L24.416 130.007L30.1915 131.146L42.7397 79.0283C42.7397 79.0283 47.9424 77.1257 49.089 69.106H46.8332H32.8476Z" fill="#8E5B61"/>
<path d="M47.5537 131.146V134.564H58.4462L53.5085 131.146H47.5537Z" fill="#D7E1F4"/>
<path d="M24.416 130.007L23.583 134.564H35.4817L30.1915 131.146L24.416 130.007Z" fill="#D7E1F4"/>
<path d="M37.8041 45.1038L33.7678 101.432H24.4161C24.4161 101.432 22.0365 89.2059 26.201 85.6365C26.201 85.6365 24.6541 78.8955 27.1528 73.2676C27.1528 73.2676 23.5834 63.3561 27.7479 59.1916C27.7479 59.1916 26.0822 48.6019 29.5328 46.579C32.983 44.5569 37.8041 45.1038 37.8041 45.1038Z" fill="#A8962A"/>
<path d="M31.2409 72.4871L27.1309 73.0911L27.1833 73.4476L31.2933 72.8436L31.2409 72.4871Z" fill="#756721"/>
<path d="M26.2369 85.4616L26.1572 85.8123L29.5742 86.5888L29.6539 86.2381L26.2369 85.4616Z" fill="#756721"/>
<path d="M32.9882 101.443L32.6289 101.421C32.9925 95.67 36.1846 45.2308 36.2681 44.8892L36.6181 44.9748L36.4431 44.932L36.6202 44.9637C36.5158 45.6804 33.0235 100.886 32.9882 101.443Z" fill="#756721"/>
<path d="M42.6846 45.0363L46.8332 101.432H53.5076C53.5076 101.432 53.5076 94.8477 53.5076 91.0209C53.5076 90.509 54.7568 83.1085 51.5445 78.2298C51.5445 78.2298 52.6631 71.3286 50.5571 67.1641C50.5571 67.1641 53.8053 61.0959 51.0686 55.0274C51.0686 55.0274 53.2157 47.709 49.089 45.725C45.2978 43.9023 42.6846 45.0363 42.6846 45.0363Z" fill="#A8962A"/>
<path d="M47.5609 66.8647L47.5459 67.2244L50.5499 67.35L50.565 66.9904L47.5609 66.8647Z" fill="#756721"/>
<path d="M48.2242 77.95L48.2129 78.3098L51.5416 78.4147L51.5529 78.0549L48.2242 77.95Z" fill="#756721"/>
<path d="M49.8818 90.7743L49.875 91.1343L53.5027 91.2032L53.5096 90.8433L49.8818 90.7743Z" fill="#756721"/>
<path d="M44.3112 44.706L43.9521 44.7319L48.0402 101.441L48.3992 101.415L44.3112 44.706Z" fill="#756721"/>
<path d="M11.8035 50.5063C11.8035 50.5063 17.6337 59.5491 18.4667 59.5491C19.2998 59.5491 26.7755 46.0923 30.7715 45.9792V55.9797C30.7715 55.9797 22.9883 67.5213 18.7047 67.6405C14.4211 67.7593 7.04395 53.4813 7.04395 53.4813L11.8035 50.5063Z" fill="#A8962A"/>
<path d="M47.2764 45.0363C47.2764 45.0363 53.2102 46.3416 58.4457 58.7159L57.9698 45.0363L63.8792 44.9319C63.8792 44.9319 66.7747 64.5465 61.4204 65.9742C56.0661 67.402 50.557 60.0998 50.557 60.0998L47.2764 45.0363Z" fill="#A8962A"/>
<path d="M57.9703 45.0364C57.9703 45.0364 56.6765 43.3109 57.2118 42.7439C57.7471 42.1769 58.5503 43.0013 58.5503 43.0013C58.5503 43.0013 59.1302 40.2189 61.7629 40.1494C64.3956 40.0799 63.8797 44.932 63.8797 44.932L57.9703 45.0364Z" fill="#D7E1F4"/>
<path d="M11.8038 50.5062C11.8038 50.5062 11.6699 48.6025 11.1198 48.5726C10.5694 48.5428 10.2573 49.6436 10.2573 49.6436C10.2573 49.6436 8.77011 48.1414 6.85131 48.6918C4.93251 49.2422 7.04463 53.4809 7.04463 53.4809L11.8038 50.5062Z" fill="#D7E1F4"/>
<path d="M9.2458 66.7476L23.405 67.1641L21.7986 84.5359L8.1748 84.0006L9.2458 66.7476Z" fill="#D7E1F4"/>
<path d="M25.8101 67.0586C25.8032 66.9787 23.4042 67.1641 23.4042 67.1641L21.7979 84.5359H27.5093L25.8101 67.0586Z" fill="#B6C5DB"/>
<path d="M14.3537 64.7999L13.3086 66.9602L13.6327 67.117L14.6778 64.9567L14.3537 64.7999Z" fill="#8E5B61"/>
<path d="M21.0261 68.0634L20.6665 68.0493C20.953 60.5981 18.4402 59.7294 18.415 59.7215L18.5166 59.3762C18.631 59.4093 21.3253 60.278 21.0261 68.0634Z" fill="#8E5B61"/>
<path d="M148.119 26.6788L135.139 0.811035L121.71 1.00976L112.72 26.6788H148.119Z" fill="#72444B"/>
<path d="M129.788 11.7886H128.523V79.5665H129.788V11.7886Z" fill="#8E5B61"/>
<path d="M140.247 26.6787H138.982V79.5667H140.247V26.6787Z" fill="#8E5B61"/>
<path d="M76.0104 26.6787H74.7461V79.5667H76.0104V26.6787Z" fill="#8E5B61"/>
<path d="M65.3102 11.7886H64.0459V79.5665H65.3102V11.7886Z" fill="#8E5B61"/>
<path d="M135.139 0.811035L124.776 26.7282L49.8828 27.7819L63.9783 1.8644L135.139 0.811035Z" fill="#D3546A"/>
<g opacity="0.69">
<path d="M52.7393 22.5295L127.072 20.9855L128.922 16.3591L55.3478 17.7329L52.7393 22.5295Z" fill="#FFF8F3"/>
</g>
<g opacity="0.69">
<path d="M58.5811 11.7885L131.384 10.2035L133.232 5.58105L61.5435 6.34137L58.5811 11.7885Z" fill="#FFF8F3"/>
</g>
<path d="M143.858 78.0918H62.335V133.766H143.858V78.0918Z" fill="#7C4C53"/>
<path d="M131.384 78.0918H62.335V133.766H131.384V78.0918Z" fill="#A8962A"/>
<path d="M145.612 78.0918H60.4297V81.5266H145.612V78.0918Z" fill="#8E5B61"/>
<path d="M102.554 78.0919H84.6806C82.877 78.0919 81.415 76.63 81.415 74.8264V69.106H105.819V74.8264C105.819 76.63 104.357 78.0919 102.554 78.0919Z" fill="#8E5B61"/>
<path d="M102.56 69.9606C102.545 69.8321 100.94 57.3358 92.9959 57.3358C92.8465 57.3358 92.6964 57.3401 92.5427 57.3491C84.2137 57.834 84.4906 69.7586 84.4942 69.8789L83.4149 69.9127C83.4106 69.782 83.1136 56.8163 92.4804 56.2709C96.3792 56.0441 99.5526 58.3474 101.652 62.9327C103.197 66.307 103.616 69.6892 103.633 69.8314L102.56 69.9606Z" fill="#8E5B61"/>
<path d="M84.6956 62.1245H72.5254V78.092H84.6956V62.1245Z" fill="#D7E1F4"/>
<path d="M85.2411 62.1245H72.0312V64.1974H85.2411V62.1245Z" fill="#D3546A"/>
<path d="M76.9434 62.1245L77.6256 78.092C77.6256 78.092 78.7603 78.5225 78.6098 78.092C78.4593 77.6614 79.4446 62.1245 79.4446 62.1245H76.9434Z" fill="#FFF8F3"/>
<path d="M125.904 50.9458H105.213V78.092H125.904V50.9458Z" fill="#D3546A"/>
<path d="M126.831 50.9458H104.373V54.4702H126.831V50.9458Z" fill="#BC445E"/>
<path d="M113.701 50.9458V78.092L115.602 78.1251L117.415 50.9458H113.701Z" fill="#FFF8F3"/>
<g opacity="0.22">
<path d="M105.213 54.4697V58.4106L125.904 55.5454V54.4697H105.213Z" fill="#8E5B61"/>
</g>
<path d="M108.022 60.9231H94.9268V78.1037H108.022V60.9231Z" fill="#A8962A"/>
<path d="M108.609 60.9231H94.3955V63.1537H108.609V60.9231Z" fill="#BC445E"/>
<path d="M100.299 60.9231V78.1041L101.502 78.125L102.649 60.9231H100.299Z" fill="#FFF8F3"/>
<g opacity="0.22">
<path d="M94.9268 63.1536V65.648L108.022 63.8347V63.1536H94.9268Z" fill="#8E5B61"/>
</g>
<path d="M70.2093 36.8201C59.2635 36.8201 52.6665 27.9475 52.5938 27.8474L52.885 27.6354C52.9649 27.7452 61.0368 38.5898 74.1056 36.0839C87.207 33.5718 90.6382 27.1872 90.6713 27.1228L90.7984 26.8762L90.9719 27.0929C91.0605 27.2038 99.9611 38.142 111.092 36.0835C122.211 34.0272 124.582 26.748 124.605 26.6746L124.949 26.7808C124.926 26.856 122.502 34.3393 111.157 36.4378C110.179 36.6185 109.217 36.7013 108.277 36.7013C99.1356 36.7016 92.0235 28.8763 90.8578 27.517C90.5345 28.0364 89.5881 29.3717 87.5976 30.9161C85.2958 32.702 81.0986 35.1094 74.1732 36.4374C72.7966 36.7016 71.4729 36.8201 70.2093 36.8201Z" fill="#8E5B61"/>
<path d="M112.129 36.8891C112.129 37.5468 111.9 38.08 111.617 38.08C111.334 38.08 111.105 37.5468 111.105 36.8891C111.105 36.2314 111.334 35.6982 111.617 35.6982C111.9 35.6982 112.129 36.2314 112.129 36.8891Z" fill="#8E5B61"/>
<path d="M111.617 41.8887C112.182 41.8887 112.64 40.8222 112.64 39.5066C112.64 38.191 112.182 37.1245 111.617 37.1245C111.052 37.1245 110.594 38.191 110.594 39.5066C110.594 40.8222 111.052 41.8887 111.617 41.8887Z" fill="#A8962A"/>
<path d="M118.838 34.8233C119.101 35.4263 119.104 36.0066 118.845 36.1196C118.586 36.2327 118.163 35.8356 117.9 35.2326C117.637 34.6296 117.633 34.0493 117.892 33.9362C118.151 33.8232 118.574 34.2203 118.838 34.8233Z" fill="#8E5B61"/>
<path d="M120.354 37.017C120.88 38.2226 120.887 39.3833 120.369 39.6094C119.851 39.8354 119.005 39.0413 118.478 37.8356C117.952 36.63 117.945 35.4694 118.463 35.2433C118.981 35.0172 119.828 35.8114 120.354 37.017Z" fill="#A8962A"/>
<path d="M123.988 30.9963C124.251 31.5993 124.254 32.1797 123.995 32.2927C123.737 32.4057 123.313 32.0087 123.05 31.4057C122.787 30.8027 122.784 30.2223 123.043 30.1093C123.301 29.9963 123.725 30.3937 123.988 30.9963Z" fill="#8E5B61"/>
<path d="M125.504 33.1906C126.031 34.3962 126.037 35.5569 125.519 35.7829C125.001 36.009 124.155 35.2149 123.629 34.0089C123.102 32.8032 123.096 31.6426 123.614 31.4165C124.132 31.1908 124.978 31.985 125.504 33.1906Z" fill="#A8962A"/>
<path d="M104.398 36.8891C104.398 37.5468 104.169 38.08 103.887 38.08C103.604 38.08 103.375 37.5468 103.375 36.8891C103.375 36.2314 103.604 35.6982 103.887 35.6982C104.169 35.6982 104.398 36.2314 104.398 36.8891Z" fill="#8E5B61"/>
<path d="M103.886 41.8887C104.451 41.8887 104.91 40.8222 104.91 39.5066C104.91 38.191 104.451 37.1245 103.886 37.1245C103.321 37.1245 102.863 38.191 102.863 39.5066C102.863 40.8222 103.321 41.8887 103.886 41.8887Z" fill="#A8962A"/>
<path d="M97.3268 34.3371C96.9779 34.8947 96.5009 35.2252 96.2615 35.0754C96.0221 34.9257 96.1107 34.3522 96.4595 33.7942C96.8084 33.2365 97.2853 32.9061 97.5247 33.0558C97.7641 33.2059 97.6756 33.7794 97.3268 34.3371Z" fill="#8E5B61"/>
<path d="M96.3718 36.8275C95.6741 37.9427 94.7201 38.6041 94.241 38.3042C93.7618 38.0047 93.9393 36.8573 94.637 35.7421C95.3346 34.6268 96.2886 33.9655 96.7678 34.2653C97.247 34.5649 97.0698 35.7122 96.3718 36.8275Z" fill="#A8962A"/>
<path d="M87.7643 32.0916C87.9223 32.7299 87.8284 33.3026 87.554 33.3707C87.2797 33.4387 86.9291 32.9761 86.771 32.3375C86.613 31.6988 86.707 31.1264 86.9813 31.0584C87.2556 30.9904 87.6062 31.453 87.7643 32.0916Z" fill="#8E5B61"/>
<path d="M88.8901 34.509C89.2065 35.7859 89.0182 36.9314 88.4696 37.0672C87.9209 37.2029 87.22 36.278 86.9036 35.0011C86.5871 33.7242 86.7754 32.5787 87.3241 32.443C87.8727 32.3069 88.5736 33.2321 88.8901 34.509Z" fill="#A8962A"/>
<path d="M80.4879 35.7944C80.646 36.4331 80.552 37.0055 80.2777 37.0735C80.0034 37.1415 79.6527 36.6789 79.4947 36.0403C79.3366 35.4017 79.4306 34.8293 79.7049 34.7612C79.9792 34.6935 80.3299 35.1561 80.4879 35.7944Z" fill="#8E5B61"/>
<path d="M81.6137 38.2121C81.9301 39.4891 81.7418 40.6346 81.1932 40.7703C80.6446 40.906 79.9436 39.9812 79.6272 38.7043C79.3108 37.4273 79.499 36.2818 80.0477 36.1461C80.5963 36.01 81.2976 36.9352 81.6137 38.2121Z" fill="#A8962A"/>
<path d="M71.0604 37.7089C71.0845 38.3663 70.875 38.9074 70.5928 38.9178C70.3105 38.9283 70.0621 38.4037 70.038 37.7464C70.0139 37.089 70.2234 36.5479 70.5057 36.5375C70.7879 36.5271 71.0363 37.0516 71.0604 37.7089Z" fill="#8E5B61"/>
<path d="M71.6677 40.3061C71.716 41.6208 71.2969 42.7033 70.7324 42.7238C70.1676 42.7444 69.6708 41.6953 69.6229 40.381C69.5747 39.0662 69.9937 37.9837 70.5582 37.9632C71.1227 37.9423 71.6195 38.9914 71.6677 40.3061Z" fill="#A8962A"/>
<path d="M63.026 36.4234C62.8038 37.0426 62.4082 37.4671 62.1422 37.3717C61.8761 37.2763 61.8408 36.697 62.063 36.0778C62.2851 35.4586 62.6807 35.0342 62.9468 35.1296C63.2124 35.225 63.2481 35.8042 63.026 36.4234Z" fill="#8E5B61"/>
<path d="M62.6232 39.0598C62.179 40.2982 61.3877 41.1471 60.8556 40.9563C60.3239 40.7655 60.2526 39.607 60.6972 38.3686C61.1415 37.1302 61.9328 36.2813 62.4648 36.4721C62.9966 36.6633 63.0675 37.8217 62.6232 39.0598Z" fill="#A8962A"/>
<path d="M57.2057 33.1285C56.9835 33.7477 56.5879 34.1722 56.3219 34.0768C56.0558 33.9814 56.0205 33.4021 56.2427 32.7829C56.4648 32.1637 56.8604 31.7393 57.1265 31.8347C57.3925 31.9301 57.4278 32.5093 57.2057 33.1285Z" fill="#8E5B61"/>
<path d="M56.803 35.7649C56.3588 37.0033 55.5675 37.8521 55.0354 37.6613C54.5037 37.4705 54.4324 36.3121 54.8766 35.0737C55.3209 33.8353 56.1122 32.9864 56.6442 33.1772C57.1763 33.3683 57.2472 34.5268 56.803 35.7649Z" fill="#A8962A"/>
<path d="M105.941 124.979H60.4348V124.034H105.941C107.251 124.034 108.317 122.968 108.317 121.658V118.384C108.317 117.074 107.251 116.009 105.941 116.009H59.5773C58.5264 116.009 57.5609 115.528 56.9273 114.689C56.2937 113.851 56.0957 112.79 56.383 111.78L62.5696 90.014C62.9242 88.7666 62.2326 87.4861 60.9949 87.0977L39.999 80.5208L40.2816 79.6187L61.2775 86.1955C63.0077 86.738 63.975 88.5287 63.4793 90.2725L57.2927 112.038C57.0871 112.761 57.229 113.519 57.6819 114.119C58.1351 114.719 58.8259 115.063 59.5773 115.063H105.941C107.772 115.063 109.262 116.552 109.262 118.383V121.658C109.262 123.489 107.772 124.979 105.941 124.979Z" fill="#D7E1F4"/>
<path d="M106.267 115.689L105.328 115.575L108.255 91.4302H62.793V90.4849H109.323L106.267 115.689Z" fill="#D7E1F4"/>
<path d="M107.795 98.2826L60.4219 98.7896L60.432 99.7348L107.805 99.2279L107.795 98.2826Z" fill="#D7E1F4"/>
<path d="M106.841 106.028H58.375V106.973H106.841V106.028Z" fill="#D7E1F4"/>
<path d="M100.913 90.9054L97.7793 115.579L98.7174 115.698L101.851 91.0246L100.913 90.9054Z" fill="#D7E1F4"/>
<path d="M89.6009 90.912L88.6592 90.9939L90.7957 115.571L91.7374 115.489L89.6009 90.912Z" fill="#D7E1F4"/>
<path d="M80.2519 90.9434L79.1182 115.617L80.0625 115.66L81.1962 90.9868L80.2519 90.9434Z" fill="#D7E1F4"/>
<path d="M71.2863 90.8821L67.4355 115.555L68.3699 115.701L72.2207 91.0279L71.2863 90.8821Z" fill="#D7E1F4"/>
<path d="M70.6142 131.492C71.0673 129.564 69.8719 127.634 67.9443 127.181C66.0167 126.728 64.0868 127.923 63.6338 129.851C63.1807 131.779 64.3761 133.709 66.3037 134.162C68.2313 134.615 70.1612 133.419 70.6142 131.492Z" fill="#683C42"/>
<path d="M103.66 133.204C105.06 131.804 105.06 129.534 103.66 128.134C102.26 126.734 99.9899 126.734 98.5898 128.134C97.1897 129.534 97.1897 131.804 98.5898 133.204C99.9899 134.604 102.26 134.604 103.66 133.204Z" fill="#683C42"/>
<path d="M36.4341 70.2651L35.7324 70.5664L40.039 80.5951L40.7406 80.2938L36.4341 70.2651Z" fill="#D7E1F4"/>
<path d="M15.9295 125.628C15.9295 125.628 15.2542 120.147 7.97895 116.568C0.703709 112.99 -2.73681 106.954 2.63367 103.046C8.00451 99.137 20.4591 111.154 15.9295 125.628Z" fill="#A8962A"/>
<path d="M17.0546 134.914L16.6953 134.893C16.6985 134.835 17.0074 129.021 15.3795 122.542C13.8228 116.347 11.0775 111.635 7.21973 108.539L7.44509 108.258C11.3655 111.405 14.1522 116.182 15.7283 122.455C17.3706 128.99 17.0578 134.855 17.0546 134.914Z" fill="#8E5B61"/>
<path d="M18.9879 128.287C18.9879 128.287 19.4548 124.377 24.4826 121.823C29.5103 119.271 31.8881 114.965 28.1765 112.177C24.4649 109.389 15.8577 117.961 18.9879 128.287Z" fill="#A8962A"/>
<path d="M18.1547 134.913C18.1522 134.872 17.9359 130.68 19.0724 126.012C20.1643 121.526 22.0964 118.109 24.814 115.857L25.0437 116.134C22.3869 118.336 20.4955 121.688 19.4223 126.097C18.2984 130.714 18.5119 134.852 18.5144 134.894L18.1547 134.913Z" fill="#8E5B61"/>
<path d="M152.745 105.321C151.395 111.456 148.626 116.061 146.561 115.606C144.496 115.152 143.917 109.81 145.267 103.674C146.618 97.5393 149.387 92.9342 151.452 93.3889C153.517 93.8436 154.096 99.1856 152.745 105.321Z" fill="#A8962A"/>
<path d="M144.618 127.636C144.618 127.636 144.172 124.014 139.364 121.649C134.556 119.284 132.283 115.296 135.832 112.713C139.381 110.13 147.611 118.072 144.618 127.636Z" fill="#A8962A"/>
<path d="M145.422 133.776L145.063 133.756C145.065 133.717 145.269 129.884 144.195 125.612C143.17 121.531 141.363 118.429 138.824 116.391L139.05 116.111C141.651 118.199 143.5 121.366 144.545 125.524C145.632 129.852 145.424 133.738 145.422 133.776Z" fill="#8E5B61"/>
<path d="M146.865 128.387C146.865 128.387 147.244 125.208 151.331 123.133C155.418 121.058 157.351 117.557 154.334 115.291C151.317 113.025 144.321 119.994 146.865 128.387Z" fill="#A8962A"/>
<path d="M146.154 133.776C146.152 133.742 145.976 130.33 146.901 126.53C147.791 122.876 149.365 120.092 151.58 118.257L151.81 118.534C149.656 120.32 148.122 123.038 147.251 126.615C146.339 130.361 146.512 133.723 146.514 133.757L146.154 133.776Z" fill="#8E5B61"/>
<path d="M145.657 133.783C144.951 126.297 146.061 117.033 147.118 110.58C148.261 103.592 149.589 98.3016 149.603 98.249L149.952 98.3369C149.899 98.5467 144.67 119.491 146.015 133.749L145.657 133.783Z" fill="#8E5B61"/>
<path d="M155.805 133.626H6.04492V136.181H155.805V133.626Z" fill="#683C42"/>
<path d="M41.8485 14.4764C41.8971 15.6712 41.6476 16.8592 41.1267 17.9353C38.5585 23.2406 29.3615 39.8542 16.9034 35.0277C2.49797 29.4466 40.8812 -9.2073 41.8485 14.4764Z" fill="#FFF5F6"/>
</svg>
