<svg width="218" height="192" viewBox="0 0 218 192" fill="none" xmlns="http://www.w3.org/2000/svg">
<path d="M217.977 30.1429L203.456 38.474H217.977V72.637L174.821 74.869L217.977 76.9709V91.885C217.977 94.273 216.622 96.2111 214.952 96.2111H100.808C99.1382 96.2111 97.7832 94.273 97.7832 91.885V4.79504C97.7832 2.40704 99.1382 0.468994 100.808 0.468994H214.952C216.622 0.468994 217.977 2.40704 217.977 4.79504V30.1429Z" fill="#FFA65C"/>
<path d="M149.815 4.79602V91.886C149.815 94.274 148.46 96.212 146.79 96.212H3.59924C1.92924 96.212 0.574219 94.274 0.574219 91.886V4.79602C0.574219 2.40802 1.92924 0.469971 3.59924 0.469971H146.79C148.459 0.469971 149.815 2.40802 149.815 4.79602Z" fill="#F9CB64"/>
<path d="M50.5912 13.161L0.573242 20.1429V13.161H50.5912Z" fill="#FFA65C"/>
<path d="M149.815 39.8929L62.2861 39.114L149.815 37.064V39.8929Z" fill="#FFA65C"/>
<path d="M0.573242 82.37H149.814V91.886C149.814 94.274 148.459 96.212 146.789 96.212H3.59827C1.92827 96.212 0.573242 94.274 0.573242 91.886V82.37Z" fill="#FFA65C"/>
<path d="M149.815 63.337V64.202L0.573242 69.3409V63.337H149.815Z" fill="#FFA65C"/>
<path d="M217.977 125.884L203.456 134.215H217.977V168.378L174.821 170.61L217.977 172.712V187.626C217.977 190.014 216.622 191.951 214.952 191.951H100.808C99.1382 191.951 97.7832 190.013 97.7832 187.626V100.536C97.7832 98.148 99.1382 96.21 100.808 96.21H214.952C216.622 96.21 217.977 98.148 217.977 100.536V125.884Z" fill="#FFA65C"/>
<path d="M149.815 100.537V187.627C149.815 190.015 148.46 191.952 146.79 191.952H3.59924C1.92924 191.952 0.574219 190.014 0.574219 187.627V100.537C0.574219 98.149 1.92924 96.2111 3.59924 96.2111H146.79C148.459 96.2111 149.815 98.149 149.815 100.537Z" fill="#F9CB64"/>
<path d="M50.5912 108.902L0.573242 115.884V108.902H50.5912Z" fill="#FFA65C"/>
<path d="M149.815 135.634L62.2861 134.855L149.815 132.805V135.634Z" fill="#FFA65C"/>
<path d="M0.573242 178.111H149.814V187.627C149.814 190.015 148.459 191.952 146.789 191.952H3.59827C1.92827 191.952 0.573242 190.014 0.573242 187.627V178.111Z" fill="#FFA65C"/>
<path d="M149.815 159.078V159.943L0.573242 165.082V159.078H149.815Z" fill="#FFA65C"/>
<path d="M38.4879 0.473022H29.2109V191.952H38.4879V0.473022Z" fill="#9B553A"/>
<path d="M125.612 0.473022H116.335V191.952H125.612V0.473022Z" fill="#9B553A"/>
</svg>
