<svg width="206" height="122" viewBox="0 0 206 122" fill="none" xmlns="http://www.w3.org/2000/svg">
<path d="M205.589 38.11L191.911 48.647H205.589V91.8559L164.936 94.6789L205.589 97.338V116.201C205.589 119.221 204.312 121.672 202.739 121.672H95.2162C93.6432 121.672 92.3662 119.221 92.3662 116.201V6.05095C92.3662 3.03095 93.6432 0.579956 95.2162 0.579956H202.739C204.312 0.579956 205.589 3.03095 205.589 6.05095V38.11Z" fill="#FFA65C"/>
<path d="M141.381 6.05095V116.202C141.381 119.222 140.104 121.673 138.531 121.673H3.64496C2.07196 121.673 0.794922 119.222 0.794922 116.202V6.05095C0.794922 3.03095 2.07196 0.579956 3.64496 0.579956H138.531C140.104 0.579956 141.381 3.03095 141.381 6.05095Z" fill="#F9CB64"/>
<path d="M47.9119 16.632L0.795898 25.462V16.632H47.9119Z" fill="#FFA65C"/>
<path d="M141.381 50.442L58.9287 49.457L141.381 46.864V50.442Z" fill="#FFA65C"/>
<path d="M0.795959 104.166H141.381V116.202C141.381 119.222 140.104 121.673 138.531 121.673H3.64496C2.07196 121.673 0.794922 119.222 0.794922 116.202V104.166H0.795959Z" fill="#FFA65C"/>
<path d="M141.381 80.0939V81.1879L0.795898 87.6879V80.0939H141.381Z" fill="#FFA65C"/>
<path d="M36.5135 0.580933H27.7715V121.677H36.5135V0.580933Z" fill="#9B553A"/>
<path d="M118.58 0.580933H109.846V121.677H118.58V0.580933Z" fill="#9B553A"/>
</svg>
