<svg width="789" height="623" viewBox="0 0 789 623" fill="none" xmlns="http://www.w3.org/2000/svg">
<path d="M139.949 120.193C139.949 120.193 137.254 65.829 147.64 37.02C153.384 21.088 162.087 10.271 168.72 3.78603C173.475 -0.863968 181.018 -0.486024 185.385 4.55398L187.514 7.01198C191.915 12.092 191.386 19.93 186.336 24.317C179.336 30.397 170.709 40.048 167.919 52.354C162.967 74.193 167.919 120.193 167.919 120.193H139.949Z" fill="#CCA18B"/>
<path d="M166.798 294.205H133.982C130.889 294.205 128.382 291.698 128.382 288.605V239.567C128.382 236.474 130.889 233.967 133.982 233.967H166.798C169.891 233.967 172.398 236.474 172.398 239.567V288.605C172.398 291.698 169.891 294.205 166.798 294.205Z" fill="#CCA18B"/>
<path d="M40.4249 501.996H698.796C714.954 501.996 727.346 487.402 725.002 471.136L661.814 32.723C659.907 19.491 648.752 9.68396 635.609 9.68396H382.695C371.336 9.68396 361.242 17.0541 357.604 28.0031L286.952 240.66C283.844 250.016 275.955 256.892 266.392 258.582L41.0379 298.397C28.6909 300.579 19.5359 311.267 19.0989 324.01L13.9549 474.107C13.4329 489.349 25.4349 501.996 40.4249 501.996Z" fill="#D13430"/>
<path d="M641.847 190.876C642.018 192.697 640.491 194.203 638.739 193.906C627.025 191.964 587.816 186.983 556.861 201.043C524.334 215.81 503.027 241.458 498.491 247.248C498.446 247.304 498.401 247.36 498.365 247.406C497.853 248.066 497.08 248.437 496.272 248.437H315.323C313.5 248.437 312.197 246.597 312.754 244.803L313.437 242.582L336.747 167.076L338.382 161.77L351.209 120.202L379.298 29.204C379.657 28.042 380.699 27.262 381.867 27.262H623.594C624.977 27.262 626.136 28.349 626.271 29.771L627.511 42.623L630.323 71.645L637.168 142.458L641.847 190.876Z" fill="#B3E0DB"/>
<path d="M641.847 190.876C642.018 192.697 640.491 194.203 638.739 193.906C627.025 191.964 587.816 186.983 556.861 201.043C524.334 215.81 503.027 241.458 498.491 247.248C498.446 247.304 498.401 247.36 498.365 247.406C497.853 248.066 497.08 248.437 496.272 248.437H315.323C313.5 248.437 312.197 246.597 312.754 244.803L313.437 242.582L336.747 167.076L338.382 161.77C383.395 178.916 435.854 190.383 489.832 184.315C558.038 176.648 605.593 159.196 637.167 142.459L641.847 190.876Z" fill="#83C0C6"/>
<path d="M82.1065 322.249L200.266 300.744C203.692 300.12 206.833 302.847 206.833 306.446V317.765C206.833 320.776 204.602 323.284 201.702 323.534L83.5415 333.721C80.2785 334.002 77.4805 331.339 77.4805 327.952C77.4795 325.141 79.4305 322.736 82.1065 322.249Z" fill="#FFA65C"/>
<g opacity="0.46">
<path d="M470.923 27.2629L336.747 167.076L351.21 120.202L438.441 27.2629H470.923Z" fill="white"/>
</g>
<g opacity="0.46">
<path d="M547.843 27.2629L323.319 248.438H315.324C313.501 248.438 312.198 246.598 312.755 244.804L313.438 242.583L533.777 27.2629H547.843Z" fill="white"/>
</g>
<g opacity="0.46">
<path d="M630.323 71.646C583.621 126.336 523.203 196.972 478.855 248.437H456.722L627.512 42.624L630.323 71.646Z" fill="white"/>
</g>
<path d="M503.701 27.2629L498.491 247.248C498.446 247.304 498.401 247.36 498.365 247.406C497.853 248.066 497.08 248.437 496.272 248.437H484.136L489.535 27.262L503.701 27.2629Z" fill="#D13430"/>
<path d="M560.696 521.188H6.06488C2.97188 521.188 0.464844 518.681 0.464844 515.588V470.99C0.464844 467.897 2.97188 465.39 6.06488 465.39H560.696C563.789 465.39 566.296 467.897 566.296 470.99V515.588C566.296 518.681 563.788 521.188 560.696 521.188Z" fill="#CCA18B"/>
<path d="M211.024 622.947C277.502 622.947 331.393 567.194 331.393 498.42C331.393 429.646 277.502 373.893 211.024 373.893C144.546 373.893 90.6553 429.646 90.6553 498.42C90.6553 567.194 144.546 622.947 211.024 622.947Z" fill="#842D54"/>
<path d="M211.025 579.298C254.201 579.298 289.203 543.088 289.203 498.42C289.203 453.752 254.201 417.542 211.025 417.542C167.848 417.542 132.847 453.752 132.847 498.42C132.847 543.088 167.848 579.298 211.025 579.298Z" fill="#F7EBCB"/>
<path d="M211.025 571.835C250.217 571.835 281.989 538.966 281.989 498.42C281.989 457.874 250.217 425.005 211.025 425.005C171.832 425.005 140.061 457.874 140.061 498.42C140.061 538.966 171.832 571.835 211.025 571.835Z" fill="#F7EBCB"/>
<path d="M281.989 498.42C281.989 538.966 250.217 571.835 211.025 571.835C171.833 571.835 140.061 538.965 140.061 498.42C140.061 492.036 140.852 485.847 142.334 479.946C150.248 511.552 178.005 534.886 211.025 534.886C244.046 534.886 271.802 511.551 279.716 479.946C281.199 485.847 281.989 492.036 281.989 498.42Z" fill="#CCA18B"/>
<path d="M211.025 521.188C223.179 521.188 233.033 510.994 233.033 498.42C233.033 485.846 223.179 475.652 211.025 475.652C198.87 475.652 189.017 485.846 189.017 498.42C189.017 510.994 198.87 521.188 211.025 521.188Z" fill="#842D54"/>
<path d="M184.347 459.805C187.329 462.89 187.329 467.891 184.347 470.976C181.365 474.061 176.531 474.061 173.549 470.976C170.567 467.891 170.567 462.89 173.549 459.805C176.531 456.72 181.365 456.72 184.347 459.805Z" fill="#842D54"/>
<path d="M248.5 526.174C251.482 529.259 251.482 534.26 248.5 537.345C245.518 540.43 240.684 540.43 237.702 537.345C234.72 534.26 234.72 529.259 237.702 526.174C240.684 523.089 245.518 523.089 248.5 526.174Z" fill="#842D54"/>
<path d="M248.5 470.976C245.518 474.061 240.684 474.061 237.702 470.976C234.72 467.891 234.72 462.89 237.702 459.805C240.684 456.72 245.518 456.72 248.5 459.805C251.482 462.89 251.482 467.891 248.5 470.976Z" fill="#842D54"/>
<path d="M184.347 537.345C181.365 540.43 176.531 540.43 173.549 537.345C170.567 534.26 170.567 529.259 173.549 526.174C176.531 523.089 181.365 523.089 184.347 526.174C187.329 529.259 187.329 534.26 184.347 537.345Z" fill="#842D54"/>
<path d="M600.668 622.947C704.495 622.947 788.664 535.871 788.664 428.457C788.664 321.043 704.495 233.967 600.668 233.967C496.841 233.967 412.672 321.043 412.672 428.457C412.672 535.871 496.841 622.947 600.668 622.947Z" fill="#842D54"/>
<path d="M600.668 554.774C668.102 554.774 722.768 498.22 722.768 428.457C722.768 358.694 668.102 302.14 600.668 302.14C533.234 302.14 478.568 358.694 478.568 428.457C478.568 498.22 533.234 554.774 600.668 554.774Z" fill="#F7EBCB"/>
<path d="M600.668 543.119C661.88 543.119 711.502 491.783 711.502 428.457C711.502 365.131 661.88 313.795 600.668 313.795C539.456 313.795 489.834 365.131 489.834 428.457C489.834 491.783 539.456 543.119 600.668 543.119Z" fill="#F7EBCB"/>
<path d="M711.502 428.457C711.502 491.782 661.879 543.119 600.668 543.119C539.457 543.119 489.834 491.782 489.834 428.457C489.834 418.486 491.069 408.819 493.384 399.603C505.744 448.966 549.095 485.411 600.668 485.411C652.241 485.411 695.592 448.966 707.952 399.603C710.267 408.819 711.502 418.486 711.502 428.457Z" fill="#CCA18B"/>
<path d="M600.668 464.017C619.651 464.017 635.04 448.096 635.04 428.457C635.04 408.818 619.651 392.897 600.668 392.897C581.685 392.897 566.296 408.818 566.296 428.457C566.296 448.096 581.685 464.017 600.668 464.017Z" fill="#842D54"/>
<path d="M600.667 367.739C607.253 367.739 612.592 362.216 612.592 355.402C612.592 348.588 607.253 343.065 600.667 343.065C594.081 343.065 588.742 348.588 588.742 355.402C588.742 362.216 594.081 367.739 600.667 367.739Z" fill="#842D54"/>
<path d="M600.667 514.333C607.253 514.333 612.592 508.81 612.592 501.996C612.592 495.182 607.253 489.659 600.667 489.659C594.081 489.659 588.742 495.182 588.742 501.996C588.742 508.81 594.081 514.333 600.667 514.333Z" fill="#842D54"/>
<path d="M671.517 441.036C678.103 441.036 683.442 435.513 683.442 428.699C683.442 421.885 678.103 416.362 671.517 416.362C664.931 416.362 659.592 421.885 659.592 428.699C659.592 435.513 664.931 441.036 671.517 441.036Z" fill="#842D54"/>
<path d="M529.819 441.036C536.405 441.036 541.744 435.513 541.744 428.699C541.744 421.885 536.405 416.362 529.819 416.362C523.233 416.362 517.894 421.885 517.894 428.699C517.894 435.513 523.233 441.036 529.819 441.036Z" fill="#842D54"/>
<path d="M172.488 220.248H128.594C125.501 220.248 122.994 217.741 122.994 214.648V116.81C122.994 113.717 125.501 111.21 128.594 111.21H172.488C175.581 111.21 178.088 113.717 178.088 116.81V214.648C178.088 217.741 175.58 220.248 172.488 220.248Z" fill="#F7EBCB"/>
<g opacity="0.54">
<path d="M134.491 111.21H129.281V220.248H134.491V111.21Z" fill="white"/>
<path d="M155.331 111.21H139.949V220.248H155.331V111.21Z" fill="white"/>
</g>
<path d="M164.22 220.248H136.861V233.967H164.22V220.248Z" fill="#842D54"/>
</svg>
